M48
;Layer_Color=9474304
;FILE_FORMAT=4:4
METRIC,LZ
;TYPE=PLATED
T1F00S00C0.2540
T2F00S00C1.0200
T3F00S00C1.5000
T4F00S00C1.6000
T5F00S00C1.8542
T6F00S00C3.0000
%
T01
X0029845Y0017103
Y0018203
X0030353Y0020574
X0030861Y0027051
X0027305
X0031496Y0028575
X0042418
X0041783Y0027051
X0041275Y0020574
X0040767Y0018203
Y0017103
X0042795Y0017905
X0051689Y0018203
Y0017103
X0053717Y0017905
X0052197Y0020574
X0052705Y0027051
X005334Y0028575
X0064389
X0062992Y0027051
X0063119Y0020574
X0062611Y0018203
Y0017103
X0064639Y0017905
X0070485Y0017145
X0069977Y0014774
Y0013674
X0069342Y0008763
X0066548Y0010033
X0064516Y0008763
X0063246Y0007239
X0052324
X0053594Y0008763
X0042672
X0041402Y0007239
X003175Y0008763
X0031877Y0017891
X0070358Y0027051
X0072007Y0014476
T02
X0006477Y0001778
X0009017
X0011557
X0014097
Y0034163
X0011557
X0009017
X0006477
T03
X0033401Y0004318
X0070231
T04
X0030861Y0001778
Y0006858
X0035941
Y0001778
X0067691
Y0006858
X0072771
Y0001778
T05
X0001016Y0015367
Y0020447
X0015367Y002032
X0019177
X0022987
Y0025146
X0019177
X0015367
Y0015494
X0019177
X0022987
Y0010668
X0019177
X0015367
T06
X0Y0
X0051689
Y0035814
X0
M30
