G04*
G04 #@! TF.GenerationSoftware,Altium Limited,Altium Designer,22.10.1 (41)*
G04*
G04 Layer_Physical_Order=1*
G04 Layer_Color=255*
%FSLAX44Y44*%
%MOMM*%
G71*
G04*
G04 #@! TF.SameCoordinates,7D2A880A-0552-440C-8A1C-2383AA23BDA6*
G04*
G04*
G04 #@! TF.FilePolarity,Positive*
G04*
G01*
G75*
%ADD11C,0.2540*%
%ADD15R,0.6500X0.7000*%
%ADD16R,0.7000X0.6500*%
G04:AMPARAMS|DCode=17|XSize=0.5mm|YSize=0.25mm|CornerRadius=0.05mm|HoleSize=0mm|Usage=FLASHONLY|Rotation=0.000|XOffset=0mm|YOffset=0mm|HoleType=Round|Shape=RoundedRectangle|*
%AMROUNDEDRECTD17*
21,1,0.5000,0.1500,0,0,0.0*
21,1,0.4000,0.2500,0,0,0.0*
1,1,0.1000,0.2000,-0.0750*
1,1,0.1000,-0.2000,-0.0750*
1,1,0.1000,-0.2000,0.0750*
1,1,0.1000,0.2000,0.0750*
%
%ADD17ROUNDEDRECTD17*%
G04:AMPARAMS|DCode=18|XSize=0.9mm|YSize=1.6mm|CornerRadius=0.0495mm|HoleSize=0mm|Usage=FLASHONLY|Rotation=0.000|XOffset=0mm|YOffset=0mm|HoleType=Round|Shape=RoundedRectangle|*
%AMROUNDEDRECTD18*
21,1,0.9000,1.5010,0,0,0.0*
21,1,0.8010,1.6000,0,0,0.0*
1,1,0.0990,0.4005,-0.7505*
1,1,0.0990,-0.4005,-0.7505*
1,1,0.0990,-0.4005,0.7505*
1,1,0.0990,0.4005,0.7505*
%
%ADD18ROUNDEDRECTD18*%
%ADD19R,0.9300X0.7900*%
%ADD20R,0.9700X0.9000*%
%ADD21R,0.9000X1.4000*%
%ADD22R,0.9500X0.8000*%
%ADD23R,0.5200X0.5200*%
G04:AMPARAMS|DCode=24|XSize=0.51mm|YSize=0.6mm|CornerRadius=0mm|HoleSize=0mm|Usage=FLASHONLY|Rotation=315.000|XOffset=0mm|YOffset=0mm|HoleType=Round|Shape=Rectangle|*
%AMROTATEDRECTD24*
4,1,4,-0.3925,-0.0318,0.0318,0.3925,0.3925,0.0318,-0.0318,-0.3925,-0.3925,-0.0318,0.0*
%
%ADD24ROTATEDRECTD24*%

G04:AMPARAMS|DCode=25|XSize=0.6mm|YSize=0.54mm|CornerRadius=0.1431mm|HoleSize=0mm|Usage=FLASHONLY|Rotation=270.000|XOffset=0mm|YOffset=0mm|HoleType=Round|Shape=RoundedRectangle|*
%AMROUNDEDRECTD25*
21,1,0.6000,0.2538,0,0,270.0*
21,1,0.3138,0.5400,0,0,270.0*
1,1,0.2862,-0.1269,-0.1569*
1,1,0.2862,-0.1269,0.1569*
1,1,0.2862,0.1269,0.1569*
1,1,0.2862,0.1269,-0.1569*
%
%ADD25ROUNDEDRECTD25*%
%ADD41C,0.5000*%
%ADD43C,0.5080*%
%ADD44C,1.0160*%
%ADD45C,3.0000*%
%ADD46C,5.0000*%
%ADD47C,2.0000*%
%ADD48C,2.1000*%
%ADD49C,0.5080*%
G36*
X751840Y384810D02*
Y-26670D01*
X739140Y-39370D01*
X-26670D01*
X-39370Y-26670D01*
Y384810D01*
X-26670Y397510D01*
X739140D01*
X751840Y384810D01*
D02*
G37*
%LPC*%
G36*
X519430Y385621D02*
Y360680D01*
X544371D01*
X543752Y364589D01*
X542412Y368712D01*
X540444Y372574D01*
X537896Y376081D01*
X534831Y379146D01*
X531324Y381694D01*
X527462Y383662D01*
X523339Y385002D01*
X519430Y385621D01*
D02*
G37*
G36*
X514350D02*
X510441Y385002D01*
X506318Y383662D01*
X502456Y381694D01*
X498949Y379146D01*
X495884Y376081D01*
X493336Y372574D01*
X491368Y368712D01*
X490028Y364589D01*
X489409Y360680D01*
X514350D01*
Y385621D01*
D02*
G37*
G36*
X2540D02*
Y360680D01*
X27481D01*
X26862Y364589D01*
X25522Y368712D01*
X23554Y372574D01*
X21006Y376081D01*
X17941Y379146D01*
X14434Y381694D01*
X10572Y383662D01*
X6449Y385002D01*
X2540Y385621D01*
D02*
G37*
G36*
X-2540D02*
X-6449Y385002D01*
X-10572Y383662D01*
X-14434Y381694D01*
X-17941Y379146D01*
X-21006Y376081D01*
X-23554Y372574D01*
X-25522Y368712D01*
X-26862Y364589D01*
X-27481Y360680D01*
X-2540D01*
Y385621D01*
D02*
G37*
G36*
X142621Y354170D02*
X139319D01*
X136130Y353315D01*
X133270Y351665D01*
X130935Y349330D01*
X129683Y347161D01*
X128930Y346947D01*
X127610D01*
X126857Y347161D01*
X125604Y349330D01*
X123270Y351665D01*
X120410Y353315D01*
X117221Y354170D01*
X113919D01*
X110730Y353315D01*
X107870Y351665D01*
X105535Y349330D01*
X104283Y347161D01*
X103530Y346947D01*
X102210D01*
X101457Y347161D01*
X100204Y349330D01*
X97870Y351665D01*
X95010Y353315D01*
X91821Y354170D01*
X88519D01*
X85330Y353315D01*
X82470Y351665D01*
X80135Y349330D01*
X78883Y347161D01*
X78130Y346947D01*
X76810D01*
X76057Y347161D01*
X74805Y349330D01*
X72470Y351665D01*
X69610Y353315D01*
X66421Y354170D01*
X63119D01*
X59930Y353315D01*
X57070Y351665D01*
X54735Y349330D01*
X53085Y346470D01*
X52230Y343281D01*
Y339979D01*
X53085Y336790D01*
X54735Y333930D01*
X57070Y331595D01*
X59930Y329945D01*
X63119Y329090D01*
X66421D01*
X69610Y329945D01*
X72470Y331595D01*
X74805Y333930D01*
X76057Y336099D01*
X76810Y336313D01*
X78130D01*
X78883Y336099D01*
X80135Y333930D01*
X82470Y331595D01*
X85330Y329945D01*
X88519Y329090D01*
X91821D01*
X95010Y329945D01*
X97870Y331595D01*
X100204Y333930D01*
X101457Y336099D01*
X102210Y336313D01*
X103530D01*
X104283Y336099D01*
X105535Y333930D01*
X107870Y331595D01*
X110730Y329945D01*
X113919Y329090D01*
X117221D01*
X120410Y329945D01*
X123270Y331595D01*
X125604Y333930D01*
X126857Y336099D01*
X127610Y336313D01*
X128930D01*
X129683Y336099D01*
X130935Y333930D01*
X133270Y331595D01*
X136130Y329945D01*
X139319Y329090D01*
X142621D01*
X145810Y329945D01*
X148670Y331595D01*
X151004Y333930D01*
X152655Y336790D01*
X153510Y339979D01*
Y343281D01*
X152655Y346470D01*
X151004Y349330D01*
X148670Y351665D01*
X145810Y353315D01*
X142621Y354170D01*
D02*
G37*
G36*
X291770Y346900D02*
X287020D01*
Y342900D01*
X291770D01*
Y346900D01*
D02*
G37*
G36*
X281940D02*
X277190D01*
Y342900D01*
X281940D01*
Y346900D01*
D02*
G37*
G36*
X544371Y355600D02*
X519430D01*
Y330659D01*
X523339Y331278D01*
X527462Y332618D01*
X531324Y334586D01*
X534831Y337134D01*
X537896Y340199D01*
X540444Y343706D01*
X542412Y347568D01*
X543752Y351691D01*
X544371Y355600D01*
D02*
G37*
G36*
X514350D02*
X489409D01*
X490028Y351691D01*
X491368Y347568D01*
X493336Y343706D01*
X495884Y340199D01*
X498949Y337134D01*
X502456Y334586D01*
X506318Y332618D01*
X510441Y331278D01*
X514350Y330659D01*
Y355600D01*
D02*
G37*
G36*
X27481D02*
X2540D01*
Y330659D01*
X6449Y331278D01*
X10572Y332618D01*
X14434Y334586D01*
X17941Y337134D01*
X21006Y340199D01*
X23554Y343706D01*
X25522Y347568D01*
X26862Y351691D01*
X27481Y355600D01*
D02*
G37*
G36*
X-2540D02*
X-27481D01*
X-26862Y351691D01*
X-25522Y347568D01*
X-23554Y343706D01*
X-21006Y340199D01*
X-17941Y337134D01*
X-14434Y334586D01*
X-10572Y332618D01*
X-6449Y331278D01*
X-2540Y330659D01*
Y355600D01*
D02*
G37*
G36*
X204910Y290890D02*
X202310D01*
Y288290D01*
X204910D01*
Y290890D01*
D02*
G37*
G36*
Y283210D02*
X202310D01*
Y280610D01*
X204910D01*
Y283210D01*
D02*
G37*
G36*
X231597Y269000D02*
X228143D01*
X224754Y268326D01*
X221562Y267004D01*
X218689Y265084D01*
X216246Y262641D01*
X214326Y259768D01*
X213004Y256576D01*
X212330Y253188D01*
Y249732D01*
X213004Y246344D01*
X214326Y243152D01*
X216246Y240279D01*
X218689Y237836D01*
X221562Y235916D01*
X224754Y234594D01*
X228143Y233920D01*
X231597D01*
X234986Y234594D01*
X238178Y235916D01*
X241051Y237836D01*
X243494Y240279D01*
X245414Y243152D01*
X246736Y246344D01*
X247410Y249732D01*
Y253188D01*
X246736Y256576D01*
X245414Y259768D01*
X243494Y262641D01*
X241051Y265084D01*
X238178Y267004D01*
X234986Y268326D01*
X231597Y269000D01*
D02*
G37*
G36*
X191770Y290930D02*
X191571Y290890D01*
X186630D01*
Y285949D01*
X186590Y285750D01*
Y268300D01*
X183462Y267004D01*
X180589Y265084D01*
X178146Y262641D01*
X176226Y259768D01*
X174904Y256576D01*
X174230Y253188D01*
Y249732D01*
X174904Y246344D01*
X176226Y243152D01*
X178146Y240279D01*
X180589Y237836D01*
X183462Y235916D01*
X186654Y234594D01*
X190042Y233920D01*
X193498D01*
X196886Y234594D01*
X200078Y235916D01*
X202951Y237836D01*
X205394Y240279D01*
X207314Y243152D01*
X208636Y246344D01*
X209310Y249732D01*
Y253188D01*
X208636Y256576D01*
X207314Y259768D01*
X205394Y262641D01*
X202951Y265084D01*
X200078Y267004D01*
X196950Y268300D01*
Y280610D01*
X197230D01*
Y285750D01*
Y290890D01*
X191969D01*
X191770Y290930D01*
D02*
G37*
G36*
X155398Y269000D02*
X151943D01*
X148554Y268326D01*
X145362Y267004D01*
X142489Y265084D01*
X140046Y262641D01*
X138126Y259768D01*
X137868Y259146D01*
X77470D01*
X75481Y258884D01*
X73627Y258116D01*
X72035Y256895D01*
X52985Y237845D01*
X51764Y236253D01*
X50996Y234399D01*
X50734Y232410D01*
Y26793D01*
X50996Y24804D01*
X51764Y22950D01*
X52808Y21589D01*
X52230Y19431D01*
Y16129D01*
X53085Y12940D01*
X54735Y10080D01*
X57070Y7746D01*
X59930Y6095D01*
X63119Y5240D01*
X66421D01*
X69610Y6095D01*
X72470Y7746D01*
X74805Y10080D01*
X76057Y12249D01*
X76810Y12463D01*
X78130D01*
X78883Y12249D01*
X80135Y10080D01*
X82470Y7746D01*
X85330Y6095D01*
X87630Y5478D01*
Y17780D01*
Y30082D01*
X85330Y29465D01*
X82470Y27815D01*
X80135Y25480D01*
X78883Y23311D01*
X78130Y23097D01*
X76810D01*
X76057Y23311D01*
X74805Y25480D01*
X72470Y27815D01*
X69610Y29465D01*
X66421Y30320D01*
X66106D01*
Y229226D01*
X80654Y243774D01*
X137868D01*
X138126Y243152D01*
X140046Y240279D01*
X142489Y237836D01*
X145362Y235916D01*
X148554Y234594D01*
X151943Y233920D01*
X155398D01*
X158786Y234594D01*
X161978Y235916D01*
X164851Y237836D01*
X167294Y240279D01*
X169214Y243152D01*
X170536Y246344D01*
X171210Y249732D01*
Y253188D01*
X170536Y256576D01*
X169214Y259768D01*
X167294Y262641D01*
X164851Y265084D01*
X161978Y267004D01*
X158786Y268326D01*
X155398Y269000D01*
D02*
G37*
G36*
X12700Y221848D02*
Y207010D01*
X27538D01*
X27026Y209586D01*
X25704Y212778D01*
X23784Y215651D01*
X21341Y218094D01*
X18468Y220014D01*
X15276Y221336D01*
X12700Y221848D01*
D02*
G37*
G36*
X7620D02*
X5044Y221336D01*
X1852Y220014D01*
X-1021Y218094D01*
X-3464Y215651D01*
X-5384Y212778D01*
X-6706Y209586D01*
X-7218Y207010D01*
X7620D01*
Y221848D01*
D02*
G37*
G36*
X27538Y201930D02*
X12700D01*
Y187092D01*
X15276Y187604D01*
X18468Y188926D01*
X21341Y190846D01*
X23784Y193289D01*
X25704Y196162D01*
X27026Y199354D01*
X27538Y201930D01*
D02*
G37*
G36*
X7620D02*
X-7218D01*
X-6706Y199354D01*
X-5384Y196162D01*
X-3464Y193289D01*
X-1021Y190846D01*
X1852Y188926D01*
X5044Y187604D01*
X7620Y187092D01*
Y201930D01*
D02*
G37*
G36*
X231597Y220740D02*
X228143D01*
X224754Y220066D01*
X221562Y218744D01*
X218689Y216824D01*
X216246Y214381D01*
X214326Y211508D01*
X213004Y208316D01*
X212330Y204928D01*
Y201472D01*
X213004Y198084D01*
X214326Y194892D01*
X216246Y192019D01*
X218689Y189576D01*
X221562Y187656D01*
X224754Y186334D01*
X228143Y185660D01*
X231597D01*
X234986Y186334D01*
X238178Y187656D01*
X241051Y189576D01*
X243494Y192019D01*
X245414Y194892D01*
X246736Y198084D01*
X247410Y201472D01*
Y204928D01*
X246736Y208316D01*
X245414Y211508D01*
X243494Y214381D01*
X241051Y216824D01*
X238178Y218744D01*
X234986Y220066D01*
X231597Y220740D01*
D02*
G37*
G36*
X193498D02*
X190042D01*
X186654Y220066D01*
X183462Y218744D01*
X180589Y216824D01*
X178146Y214381D01*
X176226Y211508D01*
X174904Y208316D01*
X174230Y204928D01*
Y201472D01*
X174904Y198084D01*
X176226Y194892D01*
X178146Y192019D01*
X180589Y189576D01*
X183462Y187656D01*
X186654Y186334D01*
X190042Y185660D01*
X193498D01*
X196886Y186334D01*
X200078Y187656D01*
X202951Y189576D01*
X205394Y192019D01*
X207314Y194892D01*
X208636Y198084D01*
X209310Y201472D01*
Y204928D01*
X208636Y208316D01*
X207314Y211508D01*
X205394Y214381D01*
X202951Y216824D01*
X200078Y218744D01*
X196886Y220066D01*
X193498Y220740D01*
D02*
G37*
G36*
X155398D02*
X151943D01*
X148554Y220066D01*
X145362Y218744D01*
X142489Y216824D01*
X140046Y214381D01*
X138126Y211508D01*
X136804Y208316D01*
X136130Y204928D01*
Y201472D01*
X136804Y198084D01*
X138126Y194892D01*
X140046Y192019D01*
X142489Y189576D01*
X145362Y187656D01*
X148554Y186334D01*
X151943Y185660D01*
X155398D01*
X158786Y186334D01*
X161978Y187656D01*
X164851Y189576D01*
X167294Y192019D01*
X169214Y194892D01*
X170536Y198084D01*
X171210Y201472D01*
Y204928D01*
X170536Y208316D01*
X169214Y211508D01*
X167294Y214381D01*
X164851Y216824D01*
X161978Y218744D01*
X158786Y220066D01*
X155398Y220740D01*
D02*
G37*
G36*
X12700Y171048D02*
Y156210D01*
X27538D01*
X27026Y158786D01*
X25704Y161978D01*
X23784Y164851D01*
X21341Y167294D01*
X18468Y169214D01*
X15276Y170536D01*
X12700Y171048D01*
D02*
G37*
G36*
X7620D02*
X5044Y170536D01*
X1852Y169214D01*
X-1021Y167294D01*
X-3464Y164851D01*
X-5384Y161978D01*
X-6706Y158786D01*
X-7218Y156210D01*
X7620D01*
Y171048D01*
D02*
G37*
G36*
X231597Y172480D02*
X228143D01*
X224754Y171806D01*
X221562Y170484D01*
X218689Y168564D01*
X216246Y166121D01*
X214326Y163248D01*
X213004Y160056D01*
X212330Y156667D01*
Y153212D01*
X213004Y149824D01*
X214326Y146632D01*
X216246Y143759D01*
X218689Y141316D01*
X221562Y139396D01*
X224754Y138074D01*
X228143Y137400D01*
X231597D01*
X234986Y138074D01*
X238178Y139396D01*
X241051Y141316D01*
X243494Y143759D01*
X245414Y146632D01*
X246736Y149824D01*
X247410Y153212D01*
Y156667D01*
X246736Y160056D01*
X245414Y163248D01*
X243494Y166121D01*
X241051Y168564D01*
X238178Y170484D01*
X234986Y171806D01*
X231597Y172480D01*
D02*
G37*
G36*
X193498D02*
X190042D01*
X186654Y171806D01*
X183462Y170484D01*
X180589Y168564D01*
X178146Y166121D01*
X176226Y163248D01*
X174904Y160056D01*
X174230Y156667D01*
Y153212D01*
X174904Y149824D01*
X176226Y146632D01*
X178146Y143759D01*
X180589Y141316D01*
X183462Y139396D01*
X186654Y138074D01*
X190042Y137400D01*
X193498D01*
X196886Y138074D01*
X200078Y139396D01*
X202951Y141316D01*
X205394Y143759D01*
X207314Y146632D01*
X208636Y149824D01*
X209310Y153212D01*
Y156667D01*
X208636Y160056D01*
X207314Y163248D01*
X205394Y166121D01*
X202951Y168564D01*
X200078Y170484D01*
X196886Y171806D01*
X193498Y172480D01*
D02*
G37*
G36*
X155398D02*
X151943D01*
X148554Y171806D01*
X145362Y170484D01*
X142489Y168564D01*
X140046Y166121D01*
X138126Y163248D01*
X136804Y160056D01*
X136130Y156667D01*
Y153212D01*
X136804Y149824D01*
X138126Y146632D01*
X140046Y143759D01*
X142489Y141316D01*
X145362Y139396D01*
X148554Y138074D01*
X151943Y137400D01*
X155398D01*
X158786Y138074D01*
X161978Y139396D01*
X164851Y141316D01*
X167294Y143759D01*
X169214Y146632D01*
X170536Y149824D01*
X171210Y153212D01*
Y156667D01*
X170536Y160056D01*
X169214Y163248D01*
X167294Y166121D01*
X164851Y168564D01*
X161978Y170484D01*
X158786Y171806D01*
X155398Y172480D01*
D02*
G37*
G36*
X27538Y151130D02*
X12700D01*
Y136292D01*
X15276Y136804D01*
X18468Y138126D01*
X21341Y140046D01*
X23784Y142489D01*
X25704Y145362D01*
X27026Y148554D01*
X27538Y151130D01*
D02*
G37*
G36*
X7620D02*
X-7218D01*
X-6706Y148554D01*
X-5384Y145362D01*
X-3464Y142489D01*
X-1021Y140046D01*
X1852Y138126D01*
X5044Y136804D01*
X7620Y136292D01*
Y151130D01*
D02*
G37*
G36*
X155398Y124220D02*
X151943D01*
X148554Y123546D01*
X145362Y122224D01*
X142489Y120304D01*
X140046Y117861D01*
X138126Y114988D01*
X137868Y114366D01*
X128270D01*
X128270Y114366D01*
X126281Y114104D01*
X124427Y113336D01*
X122835Y112115D01*
X110135Y99415D01*
X108914Y97823D01*
X108146Y95969D01*
X107884Y93980D01*
Y27823D01*
X107870Y27815D01*
X105535Y25480D01*
X104283Y23311D01*
X103530Y23097D01*
X102210D01*
X101457Y23311D01*
X100204Y25480D01*
X97870Y27815D01*
X95010Y29465D01*
X92710Y30082D01*
Y17780D01*
Y5478D01*
X95010Y6095D01*
X97870Y7746D01*
X100204Y10080D01*
X101457Y12249D01*
X102210Y12463D01*
X103530D01*
X104283Y12249D01*
X105535Y10080D01*
X107870Y7746D01*
X110730Y6095D01*
X113919Y5240D01*
X117221D01*
X120410Y6095D01*
X123270Y7746D01*
X125604Y10080D01*
X126857Y12249D01*
X127610Y12463D01*
X128930D01*
X129683Y12249D01*
X130935Y10080D01*
X133270Y7746D01*
X136130Y6095D01*
X138430Y5478D01*
Y17780D01*
Y30082D01*
X136130Y29465D01*
X133270Y27815D01*
X130935Y25480D01*
X129683Y23311D01*
X128930Y23097D01*
X127610D01*
X126857Y23311D01*
X125604Y25480D01*
X123270Y27815D01*
X123256Y27823D01*
Y90796D01*
X131454Y98994D01*
X137868D01*
X138126Y98372D01*
X140046Y95499D01*
X142489Y93056D01*
X145362Y91136D01*
X148554Y89814D01*
X151943Y89140D01*
X155398D01*
X158786Y89814D01*
X161978Y91136D01*
X164851Y93056D01*
X167294Y95499D01*
X169214Y98372D01*
X170536Y101564D01*
X171210Y104952D01*
Y108407D01*
X170536Y111796D01*
X169214Y114988D01*
X167294Y117861D01*
X164851Y120304D01*
X161978Y122224D01*
X158786Y123546D01*
X155398Y124220D01*
D02*
G37*
G36*
X231597D02*
X228143D01*
X224754Y123546D01*
X221562Y122224D01*
X218689Y120304D01*
X216246Y117861D01*
X214326Y114988D01*
X213004Y111796D01*
X212330Y108407D01*
Y104952D01*
X213004Y101564D01*
X214326Y98372D01*
X216246Y95499D01*
X218689Y93056D01*
X221562Y91136D01*
X224754Y89814D01*
X228143Y89140D01*
X231597D01*
X234986Y89814D01*
X238178Y91136D01*
X241051Y93056D01*
X243494Y95499D01*
X245414Y98372D01*
X246736Y101564D01*
X247410Y104952D01*
Y108407D01*
X246736Y111796D01*
X245414Y114988D01*
X243494Y117861D01*
X241051Y120304D01*
X238178Y122224D01*
X234986Y123546D01*
X231597Y124220D01*
D02*
G37*
G36*
X204910Y77530D02*
X202310D01*
Y74930D01*
X204910D01*
Y77530D01*
D02*
G37*
G36*
Y69850D02*
X202310D01*
Y67250D01*
X204910D01*
Y69850D01*
D02*
G37*
G36*
X193498Y124220D02*
X190042D01*
X186654Y123546D01*
X183462Y122224D01*
X180589Y120304D01*
X178146Y117861D01*
X176226Y114988D01*
X174904Y111796D01*
X174230Y108407D01*
Y104952D01*
X174904Y101564D01*
X176226Y98372D01*
X178146Y95499D01*
X180589Y93056D01*
X183462Y91136D01*
X186590Y89840D01*
Y72390D01*
X186630Y72191D01*
Y67250D01*
X191571D01*
X191770Y67210D01*
X191969Y67250D01*
X197230D01*
Y72390D01*
Y77530D01*
X196950D01*
Y89840D01*
X200078Y91136D01*
X202951Y93056D01*
X205394Y95499D01*
X207314Y98372D01*
X208636Y101564D01*
X209310Y104952D01*
Y108407D01*
X208636Y111796D01*
X207314Y114988D01*
X205394Y117861D01*
X202951Y120304D01*
X200078Y122224D01*
X196886Y123546D01*
X193498Y124220D01*
D02*
G37*
G36*
X740529Y66040D02*
X730250D01*
Y55761D01*
X732743Y56429D01*
X735717Y58145D01*
X738145Y60573D01*
X739861Y63547D01*
X740529Y66040D01*
D02*
G37*
G36*
X372229D02*
X361950D01*
Y55761D01*
X364443Y56429D01*
X367417Y58145D01*
X369845Y60573D01*
X371561Y63547D01*
X372229Y66040D01*
D02*
G37*
G36*
X674370D02*
X664091D01*
X664759Y63547D01*
X666475Y60573D01*
X668903Y58145D01*
X671877Y56429D01*
X674370Y55761D01*
Y66040D01*
D02*
G37*
G36*
X730250Y30599D02*
Y20320D01*
X740529D01*
X739861Y22813D01*
X738145Y25787D01*
X735717Y28215D01*
X732743Y29931D01*
X730250Y30599D01*
D02*
G37*
G36*
X361950D02*
Y20320D01*
X372229D01*
X371561Y22813D01*
X369845Y25787D01*
X367417Y28215D01*
X364443Y29931D01*
X361950Y30599D01*
D02*
G37*
G36*
X143510Y30082D02*
Y20320D01*
X153272D01*
X152655Y22620D01*
X151004Y25480D01*
X148670Y27815D01*
X145810Y29465D01*
X143510Y30082D01*
D02*
G37*
G36*
X674370Y30599D02*
X671877Y29931D01*
X668903Y28215D01*
X666475Y25787D01*
X664759Y22813D01*
X664091Y20320D01*
X674370D01*
Y30599D01*
D02*
G37*
G36*
X291770Y337820D02*
X277190D01*
Y333820D01*
Y320820D01*
X279300D01*
Y310070D01*
X277190D01*
Y296990D01*
Y283990D01*
X275590Y283210D01*
X262890Y270510D01*
Y87630D01*
X275590Y74930D01*
X286921D01*
Y63500D01*
Y52070D01*
X287020Y51570D01*
Y39370D01*
X299083Y26694D01*
X298175Y25787D01*
X296459Y22813D01*
X295791Y20320D01*
X308610D01*
X321429D01*
X323378Y22860D01*
X344642D01*
X346591Y20320D01*
X356870D01*
Y31371D01*
X355600Y32345D01*
Y54015D01*
X356870Y54989D01*
Y66040D01*
X346591D01*
X344642Y63500D01*
X323378D01*
X321429Y66040D01*
X308610D01*
Y71120D01*
X321429D01*
X321089Y72390D01*
X322709Y74930D01*
X345311D01*
X346931Y72390D01*
X346591Y71120D01*
X359410D01*
X372229D01*
X371889Y72390D01*
X373509Y74930D01*
X404155D01*
X410358Y68727D01*
X410782Y68444D01*
X411142Y68083D01*
X411614Y67888D01*
X412038Y67605D01*
X412538Y67505D01*
X413009Y67310D01*
X413520D01*
X414020Y67210D01*
X414520Y67310D01*
X415031D01*
X415502Y67505D01*
X416002Y67605D01*
X416426Y67888D01*
X416898Y68083D01*
X417258Y68444D01*
X417682Y68727D01*
X417966Y69152D01*
X418327Y69512D01*
X418522Y69984D01*
X418805Y70408D01*
X418905Y70908D01*
X419100Y71379D01*
Y71890D01*
X419199Y72390D01*
X420161Y74187D01*
X421026Y74827D01*
X421255Y74930D01*
X513375D01*
X519577Y68727D01*
X520002Y68444D01*
X520362Y68083D01*
X520834Y67888D01*
X521258Y67605D01*
X521758Y67505D01*
X522229Y67310D01*
X522740D01*
X523240Y67210D01*
X523740Y67310D01*
X524250D01*
X524722Y67505D01*
X525222Y67605D01*
X525646Y67888D01*
X526118Y68083D01*
X526478Y68444D01*
X526903Y68727D01*
X527186Y69152D01*
X527547Y69512D01*
X527742Y69984D01*
X528025Y70408D01*
X528125Y70908D01*
X528320Y71379D01*
Y71890D01*
X528419Y72390D01*
X529381Y74187D01*
X530246Y74827D01*
X530475Y74930D01*
X622595D01*
X628797Y68727D01*
X629222Y68444D01*
X629582Y68083D01*
X630054Y67888D01*
X630478Y67605D01*
X630978Y67505D01*
X631450Y67310D01*
X631960D01*
X632460Y67210D01*
X632960Y67310D01*
X633470D01*
X633942Y67505D01*
X634442Y67605D01*
X634866Y67888D01*
X635338Y68083D01*
X635698Y68444D01*
X636123Y68727D01*
X636406Y69152D01*
X636767Y69512D01*
X636962Y69984D01*
X637245Y70408D01*
X637345Y70908D01*
X637540Y71379D01*
Y71890D01*
X637640Y72390D01*
X638601Y74187D01*
X639466Y74827D01*
X639695Y74930D01*
X662811D01*
X664431Y72390D01*
X664091Y71120D01*
X676910D01*
Y68580D01*
X679450D01*
Y55761D01*
X681990Y53812D01*
Y32548D01*
X679450Y30599D01*
Y20320D01*
X689729D01*
X691678Y22860D01*
X712942D01*
X714891Y20320D01*
X725170D01*
Y30599D01*
X722630Y32548D01*
Y53812D01*
X725170Y55761D01*
Y68580D01*
X727710D01*
Y71120D01*
X740529D01*
X739861Y73613D01*
X738145Y76587D01*
X735717Y79015D01*
X734702Y79600D01*
X734285Y82774D01*
X739140Y87630D01*
Y270510D01*
X726440Y283210D01*
X653755D01*
X647552Y289412D01*
X647128Y289696D01*
X646768Y290057D01*
X646296Y290252D01*
X645872Y290535D01*
X645372Y290635D01*
X644901Y290830D01*
X644390D01*
X643890Y290930D01*
X643390Y290830D01*
X642879D01*
X642408Y290635D01*
X641908Y290535D01*
X641484Y290252D01*
X641012Y290057D01*
X640652Y289696D01*
X640228Y289412D01*
X639944Y288988D01*
X639583Y288628D01*
X639388Y288156D01*
X639105Y287732D01*
X639005Y287232D01*
X638810Y286761D01*
Y286250D01*
X638711Y285750D01*
X637749Y283953D01*
X636884Y283313D01*
X636655Y283210D01*
X543265D01*
X537062Y289412D01*
X536638Y289696D01*
X536278Y290057D01*
X535806Y290252D01*
X535382Y290535D01*
X534882Y290635D01*
X534411Y290830D01*
X533900D01*
X533400Y290930D01*
X532900Y290830D01*
X532389D01*
X531918Y290635D01*
X531418Y290535D01*
X530994Y290252D01*
X530522Y290057D01*
X530162Y289696D01*
X529738Y289412D01*
X529454Y288988D01*
X529093Y288628D01*
X528898Y288156D01*
X528615Y287732D01*
X528515Y287232D01*
X528320Y286761D01*
Y286250D01*
X528220Y285750D01*
X527259Y283953D01*
X526394Y283313D01*
X526165Y283210D01*
X434045D01*
X427842Y289412D01*
X427418Y289696D01*
X427058Y290057D01*
X426586Y290252D01*
X426162Y290535D01*
X425662Y290635D01*
X425191Y290830D01*
X424680D01*
X424180Y290930D01*
X423680Y290830D01*
X423170D01*
X422698Y290635D01*
X422198Y290535D01*
X421774Y290252D01*
X421302Y290057D01*
X420942Y289696D01*
X420518Y289412D01*
X420234Y288988D01*
X419873Y288628D01*
X419678Y288156D01*
X419395Y287732D01*
X419295Y287232D01*
X419100Y286761D01*
Y286250D01*
X419001Y285750D01*
X418039Y283953D01*
X417174Y283313D01*
X416945Y283210D01*
X324825D01*
X318622Y289412D01*
X318198Y289696D01*
X317838Y290057D01*
X317366Y290252D01*
X316942Y290535D01*
X316442Y290635D01*
X315970Y290830D01*
X315460D01*
X314960Y290930D01*
X314460Y290830D01*
X313950D01*
X313478Y290635D01*
X312978Y290535D01*
X312554Y290252D01*
X312082Y290057D01*
X311722Y289696D01*
X311297Y289412D01*
X311014Y288988D01*
X310653Y288628D01*
X310458Y288156D01*
X310175Y287732D01*
X310075Y287232D01*
X309880Y286761D01*
Y286250D01*
X309781Y285750D01*
X308819Y283953D01*
X307954Y283313D01*
X307725Y283210D01*
X293987D01*
X291770Y283990D01*
Y296990D01*
Y310070D01*
X289660D01*
Y320820D01*
X291770D01*
Y333820D01*
Y337820D01*
D02*
G37*
G36*
X153272Y15240D02*
X143510D01*
Y5478D01*
X145810Y6095D01*
X148670Y7746D01*
X151004Y10080D01*
X152655Y12940D01*
X153272Y15240D01*
D02*
G37*
G36*
X740529D02*
X730250D01*
Y4961D01*
X732743Y5629D01*
X735717Y7345D01*
X738145Y9773D01*
X739861Y12747D01*
X740529Y15240D01*
D02*
G37*
G36*
X321429D02*
X311150D01*
Y4961D01*
X313643Y5629D01*
X316617Y7345D01*
X319045Y9773D01*
X320761Y12747D01*
X321429Y15240D01*
D02*
G37*
G36*
X372229D02*
X361950D01*
Y4961D01*
X364443Y5629D01*
X367417Y7345D01*
X369845Y9773D01*
X371561Y12747D01*
X372229Y15240D01*
D02*
G37*
G36*
X689729D02*
X679450D01*
Y4961D01*
X681943Y5629D01*
X684917Y7345D01*
X687345Y9773D01*
X689061Y12747D01*
X689729Y15240D01*
D02*
G37*
G36*
X674370D02*
X664091D01*
X664759Y12747D01*
X666475Y9773D01*
X668903Y7345D01*
X671877Y5629D01*
X674370Y4961D01*
Y15240D01*
D02*
G37*
G36*
X356870D02*
X346591D01*
X347259Y12747D01*
X348975Y9773D01*
X351403Y7345D01*
X354377Y5629D01*
X356870Y4961D01*
Y15240D01*
D02*
G37*
G36*
X306070D02*
X295791D01*
X296459Y12747D01*
X298175Y9773D01*
X300603Y7345D01*
X303577Y5629D01*
X306070Y4961D01*
Y15240D01*
D02*
G37*
G36*
X725170D02*
X714891D01*
X715559Y12747D01*
X717275Y9773D01*
X719703Y7345D01*
X722677Y5629D01*
X725170Y4961D01*
Y15240D01*
D02*
G37*
G36*
X519430Y27481D02*
Y2540D01*
X544371D01*
X543752Y6449D01*
X542412Y10572D01*
X540444Y14434D01*
X537896Y17941D01*
X534831Y21006D01*
X531324Y23554D01*
X527462Y25522D01*
X523339Y26862D01*
X519430Y27481D01*
D02*
G37*
G36*
X514350D02*
X510441Y26862D01*
X506318Y25522D01*
X502456Y23554D01*
X498949Y21006D01*
X495884Y17941D01*
X493336Y14434D01*
X491368Y10572D01*
X490028Y6449D01*
X489409Y2540D01*
X514350D01*
Y27481D01*
D02*
G37*
G36*
X2540D02*
Y2540D01*
X27481D01*
X26862Y6449D01*
X25522Y10572D01*
X23554Y14434D01*
X21006Y17941D01*
X17941Y21006D01*
X14434Y23554D01*
X10572Y25522D01*
X6449Y26862D01*
X2540Y27481D01*
D02*
G37*
G36*
X-2540D02*
X-6449Y26862D01*
X-10572Y25522D01*
X-14434Y23554D01*
X-17941Y21006D01*
X-21006Y17941D01*
X-23554Y14434D01*
X-25522Y10572D01*
X-26862Y6449D01*
X-27481Y2540D01*
X-2540D01*
Y27481D01*
D02*
G37*
G36*
X544371Y-2540D02*
X519430D01*
Y-27481D01*
X523339Y-26862D01*
X527462Y-25522D01*
X531324Y-23554D01*
X534831Y-21006D01*
X537896Y-17941D01*
X540444Y-14434D01*
X542412Y-10572D01*
X543752Y-6449D01*
X544371Y-2540D01*
D02*
G37*
G36*
X514350D02*
X489409D01*
X490028Y-6449D01*
X491368Y-10572D01*
X493336Y-14434D01*
X495884Y-17941D01*
X498949Y-21006D01*
X502456Y-23554D01*
X506318Y-25522D01*
X510441Y-26862D01*
X514350Y-27481D01*
Y-2540D01*
D02*
G37*
G36*
X27481D02*
X2540D01*
Y-27481D01*
X6449Y-26862D01*
X10572Y-25522D01*
X14434Y-23554D01*
X17941Y-21006D01*
X21006Y-17941D01*
X23554Y-14434D01*
X25522Y-10572D01*
X26862Y-6449D01*
X27481Y-2540D01*
D02*
G37*
G36*
X-2540D02*
X-27481D01*
X-26862Y-6449D01*
X-25522Y-10572D01*
X-23554Y-14434D01*
X-21006Y-17941D01*
X-17941Y-21006D01*
X-14434Y-23554D01*
X-10572Y-25522D01*
X-6449Y-26862D01*
X-2540Y-27481D01*
Y-2540D01*
D02*
G37*
%LPD*%
D11*
X598170Y187270D02*
X600850Y184590D01*
X602478D01*
X602558Y173550D02*
X603038Y174030D01*
X598170Y170870D02*
X600850Y173550D01*
X603038Y184030D02*
X616610D01*
X602478Y184590D02*
X603038Y184030D01*
Y174030D02*
X616610D01*
X600850Y173550D02*
X602558D01*
X617820Y169030D02*
X619760Y167090D01*
X616610Y169030D02*
X617820D01*
X632460Y165880D02*
X635610Y169030D01*
X640040Y174030D02*
X646748Y167322D01*
X635610Y174030D02*
X640040D01*
X642620Y182820D02*
X646390Y179050D01*
X635630D02*
X646390D01*
X635610Y179030D02*
X635630Y179050D01*
X630110Y169030D02*
X635610D01*
X626110Y171030D02*
X628110D01*
X630110Y169030D01*
X488950Y187270D02*
X491630Y184590D01*
X493258D01*
X493338Y173550D02*
X493818Y174030D01*
X488950Y170870D02*
X491630Y173550D01*
X493818Y184030D02*
X507390D01*
X493258Y184590D02*
X493818Y184030D01*
Y174030D02*
X507390D01*
X491630Y173550D02*
X493338D01*
X508600Y169030D02*
X510540Y167090D01*
X507390Y169030D02*
X508600D01*
X523240Y165880D02*
X526390Y169030D01*
X530820Y174030D02*
X537528Y167322D01*
X526390Y174030D02*
X530820D01*
X533400Y182820D02*
X537170Y179050D01*
X526410D02*
X537170D01*
X526390Y179030D02*
X526410Y179050D01*
X520890Y169030D02*
X526390D01*
X516890Y171030D02*
X518890D01*
X520890Y169030D01*
X708960Y144760D02*
X720070D01*
X318650Y179030D02*
X318770Y178910D01*
X314960Y182720D02*
X318650Y179030D01*
X665480Y100330D02*
X672770Y107620D01*
Y121310D01*
X304800Y157480D02*
Y165880D01*
X307950Y169030D01*
X298450Y171030D02*
X300450D01*
X407670D02*
X409670D01*
X699440Y136740D02*
X701770D01*
X710500Y139720D02*
X713720D01*
X720090Y123190D02*
Y133350D01*
X713720Y139720D02*
X720090Y133350D01*
X706120Y123190D02*
Y131590D01*
X716280Y148550D02*
Y161290D01*
Y148550D02*
X720070Y144760D01*
X708940Y144740D02*
X708960Y144760D01*
X706104Y134746D02*
X706110Y134740D01*
X709270D01*
X703764Y134746D02*
X706104D01*
X701770Y136740D02*
X703764Y134746D01*
X706120Y131590D02*
X709270Y134740D01*
X523240Y157480D02*
Y165880D01*
X510540Y157480D02*
Y167090D01*
X619760Y157480D02*
Y167090D01*
X632460Y157480D02*
Y165880D01*
X399380Y169030D02*
X401320Y167090D01*
Y157480D02*
Y167090D01*
X398170Y169030D02*
X399380D01*
X414020Y165880D02*
X417170Y169030D01*
X414020Y157480D02*
Y165880D01*
X302450Y169030D02*
X306740D01*
X300450Y171030D02*
X302450Y169030D01*
X292100Y157480D02*
Y167090D01*
X290160Y169030D02*
X292100Y167090D01*
X288950Y169030D02*
X290160D01*
X306740D02*
X307950D01*
X631190Y205600D02*
Y205740D01*
Y205600D02*
X635610Y201180D01*
Y184030D02*
Y201180D01*
X521970Y205600D02*
Y205740D01*
Y205600D02*
X526390Y201180D01*
Y184030D02*
Y201180D01*
X412750Y205600D02*
Y205740D01*
X417170Y184030D02*
Y201180D01*
X412750Y205600D02*
X417170Y201180D01*
X537528Y152718D02*
Y167322D01*
X672770Y154280D02*
X674650Y152400D01*
X533400Y182820D02*
Y195580D01*
X307950Y174030D02*
X313014D01*
X307950Y179030D02*
X318650D01*
X313014Y174030D02*
X318770Y168274D01*
X642620Y182820D02*
Y195580D01*
X680470Y144780D02*
X685510Y139740D01*
X690270D01*
X672770Y144780D02*
X680470D01*
X681660Y130810D02*
X685590Y134740D01*
X690270D01*
X672770Y130810D02*
X681660D01*
X281940Y175518D02*
Y182542D01*
X283428Y184030D01*
X288950D01*
X281940Y175518D02*
X283428Y174030D01*
X288950D01*
X424180Y182820D02*
Y195580D01*
Y182820D02*
X427950Y179050D01*
X417170Y179030D02*
X417190Y179050D01*
X427950D01*
X384118Y173550D02*
X384598Y174030D01*
X379730Y170870D02*
X382410Y173550D01*
X384118D01*
X307950Y184030D02*
Y201180D01*
X303530Y205600D02*
Y205740D01*
Y205600D02*
X307950Y201180D01*
X709270Y149740D02*
Y166890D01*
X704850Y171310D02*
X709270Y166890D01*
X704850Y171310D02*
Y171450D01*
X674650Y152400D02*
X682690D01*
X685350Y149740D02*
X690270D01*
X682690Y152400D02*
X685350Y149740D01*
X314960Y182720D02*
Y195580D01*
X421600Y174030D02*
X428308Y167322D01*
X384598Y174030D02*
X398170D01*
X411670Y169030D02*
X417170D01*
X409670Y171030D02*
X411670Y169030D01*
X417170Y174030D02*
X421600D01*
X428308Y152718D02*
Y167322D01*
X384038Y184590D02*
X384598Y184030D01*
X379730Y187270D02*
X382410Y184590D01*
X384038D01*
X384598Y184030D02*
X398170D01*
X318770Y152400D02*
Y168274D01*
D15*
X656260Y144780D02*
D03*
Y154280D02*
D03*
X672770D02*
D03*
Y144780D02*
D03*
Y130810D02*
D03*
Y121310D02*
D03*
D16*
X655930Y130810D02*
D03*
X646430D02*
D03*
D17*
X690270Y149740D02*
D03*
Y144740D02*
D03*
Y139740D02*
D03*
Y134740D02*
D03*
X709270D02*
D03*
Y139740D02*
D03*
Y144740D02*
D03*
Y149740D02*
D03*
X307950Y184030D02*
D03*
Y179030D02*
D03*
Y174030D02*
D03*
Y169030D02*
D03*
X288950D02*
D03*
Y174030D02*
D03*
Y179030D02*
D03*
Y184030D02*
D03*
X417170D02*
D03*
Y179030D02*
D03*
Y174030D02*
D03*
Y169030D02*
D03*
X398170D02*
D03*
Y174030D02*
D03*
Y179030D02*
D03*
Y184030D02*
D03*
X526390D02*
D03*
Y179030D02*
D03*
Y174030D02*
D03*
Y169030D02*
D03*
X507390D02*
D03*
Y174030D02*
D03*
Y179030D02*
D03*
Y184030D02*
D03*
X635610D02*
D03*
Y179030D02*
D03*
Y174030D02*
D03*
Y169030D02*
D03*
X616610D02*
D03*
Y174030D02*
D03*
Y179030D02*
D03*
Y184030D02*
D03*
D18*
X699770Y142240D02*
D03*
X298450Y176530D02*
D03*
X407670D02*
D03*
X516890D02*
D03*
X626110D02*
D03*
D19*
X379730Y187270D02*
D03*
Y170870D02*
D03*
X598170Y187270D02*
D03*
Y170870D02*
D03*
X488950D02*
D03*
Y187270D02*
D03*
D20*
X327660Y223520D02*
D03*
Y238720D02*
D03*
X546100Y223520D02*
D03*
Y238720D02*
D03*
X436880D02*
D03*
Y223520D02*
D03*
D21*
X387800Y134620D02*
D03*
X348800D02*
D03*
X458020Y223520D02*
D03*
X497020D02*
D03*
X458020Y134620D02*
D03*
X497020D02*
D03*
X606240D02*
D03*
X567240D02*
D03*
X606240Y223520D02*
D03*
X567240D02*
D03*
X348800D02*
D03*
X387800D02*
D03*
D22*
X284480Y303530D02*
D03*
Y290530D02*
D03*
Y340360D02*
D03*
Y327360D02*
D03*
D23*
X191770Y72390D02*
D03*
X199770D02*
D03*
Y285750D02*
D03*
X191770D02*
D03*
D24*
X537210Y152400D02*
D03*
X543786Y145824D02*
D03*
X427990Y152400D02*
D03*
X434566Y145824D02*
D03*
X318770Y152400D02*
D03*
X325346Y145824D02*
D03*
D25*
X567200Y190500D02*
D03*
X575800D02*
D03*
X567200Y167640D02*
D03*
X575800D02*
D03*
X357360Y190500D02*
D03*
X348760D02*
D03*
X466580D02*
D03*
X457980D02*
D03*
X466580Y167640D02*
D03*
X457980D02*
D03*
X357360D02*
D03*
X348760D02*
D03*
D41*
X699770Y147740D02*
D03*
Y136740D02*
D03*
X298450Y171030D02*
D03*
Y182030D02*
D03*
X407670Y171030D02*
D03*
Y182030D02*
D03*
X516890Y171030D02*
D03*
Y182030D02*
D03*
X626110Y171030D02*
D03*
Y182030D02*
D03*
D43*
X606240Y134620D02*
Y137120D01*
X601780Y139080D02*
X604280D01*
X567200Y134660D02*
Y167640D01*
Y190500D01*
X606240Y221020D02*
Y223520D01*
X604280Y219060D02*
X606240Y221020D01*
X567200Y190500D02*
Y223520D01*
X543786Y145824D02*
X554990Y134620D01*
X567240D01*
X601780Y219060D02*
X604280D01*
X598170Y215450D02*
X601780Y219060D01*
X594240Y190500D02*
X596060Y188680D01*
X575800Y190500D02*
X594240D01*
X598170Y187270D02*
Y215450D01*
X596060Y188680D02*
X596760D01*
X598170Y187270D01*
X604280Y139080D02*
X606240Y137120D01*
X596760Y169460D02*
X598170Y170870D01*
X596060Y169460D02*
X596760D01*
X575800Y167640D02*
X594240D01*
X598170Y142690D02*
Y170870D01*
Y142690D02*
X601780Y139080D01*
X594240Y167640D02*
X596060Y169460D01*
X546100Y223520D02*
X567200D01*
X497020Y134620D02*
Y137120D01*
X492560Y139080D02*
X495060D01*
X457980Y134660D02*
Y167640D01*
Y190500D01*
X497020Y221020D02*
Y223520D01*
X495060Y219060D02*
X497020Y221020D01*
X457980Y190500D02*
Y223520D01*
X434566Y145824D02*
X445770Y134620D01*
X458020D01*
X492560Y219060D02*
X495060D01*
X488950Y215450D02*
X492560Y219060D01*
X485020Y190500D02*
X486840Y188680D01*
X466580Y190500D02*
X485020D01*
X488950Y187270D02*
Y215450D01*
X486840Y188680D02*
X487540D01*
X488950Y187270D01*
X495060Y139080D02*
X497020Y137120D01*
X487540Y169460D02*
X488950Y170870D01*
X486840Y169460D02*
X487540D01*
X466580Y167640D02*
X485020D01*
X488950Y142690D02*
Y170870D01*
Y142690D02*
X492560Y139080D01*
X485020Y167640D02*
X486840Y169460D01*
X436880Y223520D02*
X457980D01*
X276860Y270510D02*
X284426Y278076D01*
Y290476D01*
X273050Y270510D02*
X276860D01*
X284426Y290476D02*
X284480Y290530D01*
Y303530D02*
Y327360D01*
X308610Y270510D02*
X314960Y264160D01*
X702310Y43180D02*
Y80010D01*
X720090Y97790D01*
Y123190D01*
X300990Y43180D02*
X334010D01*
X292100Y52070D02*
X300990Y43180D01*
X292100Y52070D02*
Y157480D01*
X401320Y85090D02*
X414020Y72390D01*
X401320Y85090D02*
Y157480D01*
X510540Y85090D02*
X523240Y72390D01*
X619760Y85090D02*
X632460Y72390D01*
X643890Y285750D02*
X656260Y273380D01*
Y154280D02*
Y273380D01*
X533400Y285750D02*
X546100Y273050D01*
X424180Y285750D02*
X436880Y273050D01*
X314960Y285750D02*
X327660Y273050D01*
X191770Y72390D02*
Y106680D01*
Y251460D02*
Y285750D01*
X646430Y130810D02*
Y161290D01*
X706120Y100330D02*
Y123190D01*
X693420Y87630D02*
X706120Y100330D01*
X523240D02*
X535940Y87630D01*
X523240Y100330D02*
Y157480D01*
X510540Y85090D02*
Y157480D01*
X632460Y100330D02*
Y157480D01*
Y100330D02*
X645160Y87630D01*
X619760Y85090D02*
Y157480D01*
X414020Y100330D02*
X426720Y87630D01*
X414020Y100330D02*
Y157480D01*
X304800Y100330D02*
X317500Y87630D01*
X304800Y100330D02*
Y157480D01*
X656260Y144780D02*
X672770D01*
X656260Y130810D02*
X672770D01*
X357360Y167640D02*
X375800D01*
X378320Y169460D02*
X379730Y170870D01*
X377620Y169460D02*
X378320D01*
X375800Y167640D02*
X377620Y169460D01*
X327660Y238720D02*
Y273050D01*
X703580Y270510D02*
X716280Y257810D01*
Y161290D02*
Y257810D01*
X424180Y195580D02*
Y264160D01*
X314960Y195580D02*
Y264160D01*
X417830Y270510D02*
X424180Y264160D01*
X527050Y270510D02*
X533400Y264160D01*
Y195580D02*
Y264160D01*
X629920Y270510D02*
X642620Y257810D01*
Y195580D02*
Y257810D01*
X546100Y238720D02*
Y273050D01*
X436880Y238720D02*
Y273050D01*
X385840Y139080D02*
X387800Y137120D01*
Y134620D02*
Y137120D01*
X379730Y142690D02*
Y170870D01*
Y142690D02*
X383340Y139080D01*
X385840D01*
X348760Y167640D02*
Y190500D01*
X379730Y187270D02*
Y215450D01*
X348760Y190500D02*
Y223520D01*
X379730Y215450D02*
X383340Y219060D01*
X387800Y221020D02*
Y223520D01*
X327660D02*
X348760D01*
X385840Y219060D02*
X387800Y221020D01*
X383340Y219060D02*
X385840D01*
X357360Y190500D02*
X375800D01*
X378320Y188680D02*
X379730Y187270D01*
X375800Y190500D02*
X377620Y188680D01*
X378320D01*
X336550Y134620D02*
X348800D01*
X348760Y134660D02*
Y167640D01*
X325346Y145824D02*
X336550Y134620D01*
D44*
X77470Y251460D02*
X153670D01*
X58420Y232410D02*
X77470Y251460D01*
X58420Y26793D02*
Y232410D01*
Y26793D02*
X64770Y20443D01*
Y17780D02*
Y20443D01*
X115570Y93980D02*
X128270Y106680D01*
X115570Y17780D02*
Y93980D01*
X128270Y106680D02*
X153670D01*
D45*
X10160Y153670D02*
D03*
Y204470D02*
D03*
X229870Y251460D02*
D03*
X191770D02*
D03*
X153670D02*
D03*
X229870Y203200D02*
D03*
X191770D02*
D03*
X153670D02*
D03*
X229870Y154940D02*
D03*
X191770D02*
D03*
X153670D02*
D03*
X229870Y106680D02*
D03*
X191770D02*
D03*
X153670D02*
D03*
D46*
X516890Y358140D02*
D03*
X0D02*
D03*
Y0D02*
D03*
X516890D02*
D03*
D47*
X702310Y43180D02*
D03*
X140970Y17780D02*
D03*
X115570D02*
D03*
X90170D02*
D03*
X64770D02*
D03*
X334010Y43180D02*
D03*
X140970Y341630D02*
D03*
X115570D02*
D03*
X90170D02*
D03*
X64770D02*
D03*
D48*
X676910Y17780D02*
D03*
Y68580D02*
D03*
X727710D02*
D03*
Y17780D02*
D03*
X308610D02*
D03*
Y68580D02*
D03*
X359410D02*
D03*
Y17780D02*
D03*
D49*
X646390Y179050D02*
D03*
X537170D02*
D03*
X273050Y270510D02*
D03*
X308610D02*
D03*
X414020Y72390D02*
D03*
X314960Y285750D02*
D03*
X424180D02*
D03*
X533400D02*
D03*
X643890D02*
D03*
X632460Y72390D02*
D03*
X523240D02*
D03*
X665480Y100330D02*
D03*
X693420Y87630D02*
D03*
X720070Y144760D02*
D03*
X535940Y87630D02*
D03*
X645160D02*
D03*
X426720D02*
D03*
X317500D02*
D03*
X631190Y205740D02*
D03*
X521970D02*
D03*
X412750D02*
D03*
X527050Y270510D02*
D03*
X417830D02*
D03*
X703580D02*
D03*
X303530Y205740D02*
D03*
X427950Y179050D02*
D03*
X318770Y178910D02*
D03*
X704850Y171450D02*
D03*
X629920Y270510D02*
D03*
M02*
