G04*
G04 #@! TF.GenerationSoftware,Altium Limited,Altium Designer,22.10.1 (41)*
G04*
G04 Layer_Color=16711935*
%FSLAX44Y44*%
%MOMM*%
G71*
G04*
G04 #@! TF.SameCoordinates,7D2A880A-0552-440C-8A1C-2383AA23BDA6*
G04*
G04*
G04 #@! TF.FilePolarity,Negative*
G04*
G01*
G75*
%ADD37C,3.2032*%
%ADD38C,5.2032*%
%ADD39C,2.2032*%
%ADD40C,2.3032*%
%ADD41C,0.5000*%
%ADD42C,0.7112*%
%ADD52R,2.7032X7.7032*%
%ADD53R,0.7232X0.7232*%
D37*
X10160Y153670D02*
D03*
Y204470D02*
D03*
X229870Y251460D02*
D03*
X191770D02*
D03*
X153670D02*
D03*
X229870Y203200D02*
D03*
X191770D02*
D03*
X153670D02*
D03*
X229870Y154940D02*
D03*
X191770D02*
D03*
X153670D02*
D03*
X229870Y106680D02*
D03*
X191770D02*
D03*
X153670D02*
D03*
D38*
X516890Y358140D02*
D03*
X0D02*
D03*
Y0D02*
D03*
X516890D02*
D03*
D39*
X702310Y43180D02*
D03*
X140970Y17780D02*
D03*
X115570D02*
D03*
X90170D02*
D03*
X64770D02*
D03*
X334010Y43180D02*
D03*
X140970Y341630D02*
D03*
X115570D02*
D03*
X90170D02*
D03*
X64770D02*
D03*
D40*
X676910Y17780D02*
D03*
Y68580D02*
D03*
X727710D02*
D03*
Y17780D02*
D03*
X308610D02*
D03*
Y68580D02*
D03*
X359410D02*
D03*
Y17780D02*
D03*
D41*
X699770Y147740D02*
D03*
Y136740D02*
D03*
X298450Y171030D02*
D03*
Y182030D02*
D03*
X407670Y171030D02*
D03*
Y182030D02*
D03*
X516890Y171030D02*
D03*
Y182030D02*
D03*
X626110Y171030D02*
D03*
Y182030D02*
D03*
D42*
X646390Y179050D02*
D03*
X537170D02*
D03*
X273050Y270510D02*
D03*
X308610D02*
D03*
X414020Y72390D02*
D03*
X314960Y285750D02*
D03*
X424180D02*
D03*
X533400D02*
D03*
X643890D02*
D03*
X632460Y72390D02*
D03*
X523240D02*
D03*
X665480Y100330D02*
D03*
X693420Y87630D02*
D03*
X720070Y144760D02*
D03*
X535940Y87630D02*
D03*
X645160D02*
D03*
X426720D02*
D03*
X317500D02*
D03*
X631190Y205740D02*
D03*
X521970D02*
D03*
X412750D02*
D03*
X527050Y270510D02*
D03*
X417830D02*
D03*
X703580D02*
D03*
X303530Y205740D02*
D03*
X427950Y179050D02*
D03*
X318770Y178910D02*
D03*
X704850Y171450D02*
D03*
X629920Y270510D02*
D03*
D52*
X249770Y340360D02*
D03*
X191770D02*
D03*
Y17780D02*
D03*
X249770D02*
D03*
D53*
X548640Y171260D02*
D03*
Y179260D02*
D03*
X731190Y136780D02*
D03*
Y144780D02*
D03*
X657860Y179260D02*
D03*
Y171260D02*
D03*
X330200Y171100D02*
D03*
Y179100D02*
D03*
X439420Y171260D02*
D03*
Y179260D02*
D03*
M02*
