G04*
G04 #@! TF.GenerationSoftware,Altium Limited,Altium Designer,22.10.1 (41)*
G04*
G04 Layer_Color=255*
%FSLAX44Y44*%
%MOMM*%
G71*
G04*
G04 #@! TF.SameCoordinates,7D2A880A-0552-440C-8A1C-2383AA23BDA6*
G04*
G04*
G04 #@! TF.FilePolarity,Positive*
G04*
G01*
G75*
%ADD45C,3.0000*%
%ADD46C,5.0000*%
%ADD47C,2.0000*%
%ADD48C,2.1000*%
%ADD50R,2.5000X7.5000*%
%ADD51R,0.5200X0.5200*%
D45*
X10160Y153670D02*
D03*
Y204470D02*
D03*
X229870Y251460D02*
D03*
X191770D02*
D03*
X153670D02*
D03*
X229870Y203200D02*
D03*
X191770D02*
D03*
X153670D02*
D03*
X229870Y154940D02*
D03*
X191770D02*
D03*
X153670D02*
D03*
X229870Y106680D02*
D03*
X191770D02*
D03*
X153670D02*
D03*
D46*
X516890Y358140D02*
D03*
X0D02*
D03*
Y0D02*
D03*
X516890D02*
D03*
D47*
X702310Y43180D02*
D03*
X140970Y17780D02*
D03*
X115570D02*
D03*
X90170D02*
D03*
X64770D02*
D03*
X334010Y43180D02*
D03*
X140970Y341630D02*
D03*
X115570D02*
D03*
X90170D02*
D03*
X64770D02*
D03*
D48*
X676910Y17780D02*
D03*
Y68580D02*
D03*
X727710D02*
D03*
Y17780D02*
D03*
X308610D02*
D03*
Y68580D02*
D03*
X359410D02*
D03*
Y17780D02*
D03*
D50*
X249770Y340360D02*
D03*
X191770D02*
D03*
Y17780D02*
D03*
X249770D02*
D03*
D51*
X548640Y171260D02*
D03*
Y179260D02*
D03*
X731190Y136780D02*
D03*
Y144780D02*
D03*
X657860Y179260D02*
D03*
Y171260D02*
D03*
X330200Y171100D02*
D03*
Y179100D02*
D03*
X439420Y171260D02*
D03*
Y179260D02*
D03*
M02*
