G04*
G04 #@! TF.GenerationSoftware,Altium Limited,Altium Designer,22.10.1 (41)*
G04*
G04 Layer_Physical_Order=2*
G04 Layer_Color=16711680*
%FSLAX44Y44*%
%MOMM*%
G71*
G04*
G04 #@! TF.SameCoordinates,7D2A880A-0552-440C-8A1C-2383AA23BDA6*
G04*
G04*
G04 #@! TF.FilePolarity,Positive*
G04*
G01*
G75*
%ADD11C,0.2540*%
%ADD41C,0.5000*%
%ADD43C,0.5080*%
%ADD44C,1.0160*%
%ADD45C,3.0000*%
%ADD46C,5.0000*%
%ADD47C,2.0000*%
%ADD48C,2.1000*%
%ADD49C,0.5080*%
%ADD50R,2.5000X7.5000*%
%ADD51R,0.5200X0.5200*%
G36*
X751840Y384810D02*
Y-26670D01*
X739140Y-39370D01*
X-26670D01*
X-39370Y-26670D01*
Y384810D01*
X-26670Y397510D01*
X739140D01*
X751840Y384810D01*
D02*
G37*
%LPC*%
G36*
X519430Y385621D02*
Y360680D01*
X544371D01*
X543752Y364589D01*
X542412Y368712D01*
X540444Y372574D01*
X537896Y376081D01*
X534831Y379146D01*
X531324Y381694D01*
X527462Y383662D01*
X523339Y385002D01*
X519430Y385621D01*
D02*
G37*
G36*
X514350D02*
X510441Y385002D01*
X506318Y383662D01*
X502456Y381694D01*
X498949Y379146D01*
X495884Y376081D01*
X493336Y372574D01*
X491368Y368712D01*
X490028Y364589D01*
X489409Y360680D01*
X514350D01*
Y385621D01*
D02*
G37*
G36*
X2540D02*
Y360680D01*
X27481D01*
X26862Y364589D01*
X25522Y368712D01*
X23554Y372574D01*
X21006Y376081D01*
X17941Y379146D01*
X14434Y381694D01*
X10572Y383662D01*
X6449Y385002D01*
X2540Y385621D01*
D02*
G37*
G36*
X-2540D02*
X-6449Y385002D01*
X-10572Y383662D01*
X-14434Y381694D01*
X-17941Y379146D01*
X-21006Y376081D01*
X-23554Y372574D01*
X-25522Y368712D01*
X-26862Y364589D01*
X-27481Y360680D01*
X-2540D01*
Y385621D01*
D02*
G37*
G36*
X142621Y354170D02*
X139319D01*
X136130Y353315D01*
X133270Y351665D01*
X130935Y349330D01*
X129683Y347161D01*
X128930Y346947D01*
X127610D01*
X126857Y347161D01*
X125604Y349330D01*
X123270Y351665D01*
X120410Y353315D01*
X117221Y354170D01*
X113919D01*
X110730Y353315D01*
X107870Y351665D01*
X105535Y349330D01*
X104283Y347161D01*
X103530Y346947D01*
X102210D01*
X101457Y347161D01*
X100204Y349330D01*
X97870Y351665D01*
X95010Y353315D01*
X91821Y354170D01*
X88519D01*
X85330Y353315D01*
X82470Y351665D01*
X80135Y349330D01*
X78883Y347161D01*
X78130Y346947D01*
X76810D01*
X76057Y347161D01*
X74805Y349330D01*
X72470Y351665D01*
X69610Y353315D01*
X66421Y354170D01*
X63119D01*
X59930Y353315D01*
X57070Y351665D01*
X54735Y349330D01*
X53085Y346470D01*
X52230Y343281D01*
Y339979D01*
X53085Y336790D01*
X54735Y333930D01*
X57070Y331595D01*
X59930Y329945D01*
X63119Y329090D01*
X63434D01*
Y170180D01*
X63696Y168191D01*
X64464Y166337D01*
X65685Y164745D01*
X80925Y149505D01*
X82517Y148284D01*
X84371Y147516D01*
X86360Y147254D01*
X137868D01*
X138126Y146632D01*
X140046Y143759D01*
X142489Y141316D01*
X145362Y139396D01*
X148554Y138074D01*
X151943Y137400D01*
X155398D01*
X158786Y138074D01*
X161978Y139396D01*
X164851Y141316D01*
X167294Y143759D01*
X169214Y146632D01*
X170536Y149824D01*
X171210Y153212D01*
Y156667D01*
X170536Y160056D01*
X169214Y163248D01*
X167294Y166121D01*
X164851Y168564D01*
X161978Y170484D01*
X158786Y171806D01*
X155398Y172480D01*
X151943D01*
X148554Y171806D01*
X145362Y170484D01*
X142489Y168564D01*
X140046Y166121D01*
X138126Y163248D01*
X137868Y162626D01*
X89544D01*
X78806Y173364D01*
Y331668D01*
X81254Y332784D01*
X81280Y332785D01*
X82470Y331595D01*
X85330Y329945D01*
X88519Y329090D01*
X91821D01*
X95010Y329945D01*
X97870Y331595D01*
X100204Y333930D01*
X101457Y336099D01*
X102210Y336313D01*
X103530D01*
X104283Y336099D01*
X105535Y333930D01*
X107870Y331595D01*
X107884Y331587D01*
Y215900D01*
X108146Y213911D01*
X108914Y212057D01*
X110135Y210465D01*
X122835Y197765D01*
X124427Y196544D01*
X126281Y195776D01*
X128270Y195514D01*
X137868D01*
X138126Y194892D01*
X140046Y192019D01*
X142489Y189576D01*
X145362Y187656D01*
X148554Y186334D01*
X151943Y185660D01*
X155398D01*
X158786Y186334D01*
X161978Y187656D01*
X164851Y189576D01*
X167294Y192019D01*
X169214Y194892D01*
X170536Y198084D01*
X171210Y201472D01*
Y204928D01*
X170536Y208316D01*
X169214Y211508D01*
X167294Y214381D01*
X164851Y216824D01*
X161978Y218744D01*
X158786Y220066D01*
X155398Y220740D01*
X151943D01*
X148554Y220066D01*
X145362Y218744D01*
X142489Y216824D01*
X140046Y214381D01*
X138126Y211508D01*
X137868Y210886D01*
X131454D01*
X123256Y219084D01*
Y331587D01*
X123270Y331595D01*
X125604Y333930D01*
X126857Y336099D01*
X127610Y336313D01*
X128930D01*
X129683Y336099D01*
X130935Y333930D01*
X133270Y331595D01*
X136130Y329945D01*
X139319Y329090D01*
X142621D01*
X145810Y329945D01*
X148670Y331595D01*
X151004Y333930D01*
X152655Y336790D01*
X153510Y339979D01*
Y343281D01*
X152655Y346470D01*
X151004Y349330D01*
X148670Y351665D01*
X145810Y353315D01*
X142621Y354170D01*
D02*
G37*
G36*
X264810Y380400D02*
X252310D01*
Y342900D01*
X264810D01*
Y380400D01*
D02*
G37*
G36*
X247230D02*
X234730D01*
Y342900D01*
X247230D01*
Y380400D01*
D02*
G37*
G36*
X544371Y355600D02*
X519430D01*
Y330659D01*
X523339Y331278D01*
X527462Y332618D01*
X531324Y334586D01*
X534831Y337134D01*
X537896Y340199D01*
X540444Y343706D01*
X542412Y347568D01*
X543752Y351691D01*
X544371Y355600D01*
D02*
G37*
G36*
X514350D02*
X489409D01*
X490028Y351691D01*
X491368Y347568D01*
X493336Y343706D01*
X495884Y340199D01*
X498949Y337134D01*
X502456Y334586D01*
X506318Y332618D01*
X510441Y331278D01*
X514350Y330659D01*
Y355600D01*
D02*
G37*
G36*
X27481D02*
X2540D01*
Y330659D01*
X6449Y331278D01*
X10572Y332618D01*
X14434Y334586D01*
X17941Y337134D01*
X21006Y340199D01*
X23554Y343706D01*
X25522Y347568D01*
X26862Y351691D01*
X27481Y355600D01*
D02*
G37*
G36*
X-2540D02*
X-27481D01*
X-26862Y351691D01*
X-25522Y347568D01*
X-23554Y343706D01*
X-21006Y340199D01*
X-17941Y337134D01*
X-14434Y334586D01*
X-10572Y332618D01*
X-6449Y331278D01*
X-2540Y330659D01*
Y355600D01*
D02*
G37*
G36*
X264810Y337820D02*
X252310D01*
Y300320D01*
X264810D01*
Y337820D01*
D02*
G37*
G36*
X247230D02*
X234730D01*
Y300320D01*
X247230D01*
Y337820D01*
D02*
G37*
G36*
X646430Y290196D02*
Y288290D01*
X648336D01*
X648197Y288628D01*
X646768Y290057D01*
X646430Y290196D01*
D02*
G37*
G36*
X155398Y269000D02*
X151943D01*
X148554Y268326D01*
X145362Y267004D01*
X142489Y265084D01*
X140046Y262641D01*
X138126Y259768D01*
X136804Y256576D01*
X136130Y253188D01*
Y249732D01*
X136804Y246344D01*
X138126Y243152D01*
X140046Y240279D01*
X142489Y237836D01*
X145362Y235916D01*
X148554Y234594D01*
X151943Y233920D01*
X155398D01*
X158786Y234594D01*
X161978Y235916D01*
X164851Y237836D01*
X167294Y240279D01*
X169214Y243152D01*
X170536Y246344D01*
X171210Y249732D01*
Y253188D01*
X170536Y256576D01*
X169214Y259768D01*
X167294Y262641D01*
X164851Y265084D01*
X161978Y267004D01*
X158786Y268326D01*
X155398Y269000D01*
D02*
G37*
G36*
X12700Y221848D02*
Y207010D01*
X27538D01*
X27026Y209586D01*
X25704Y212778D01*
X23784Y215651D01*
X21341Y218094D01*
X18468Y220014D01*
X15276Y221336D01*
X12700Y221848D01*
D02*
G37*
G36*
X7620D02*
X5044Y221336D01*
X1852Y220014D01*
X-1021Y218094D01*
X-3464Y215651D01*
X-5384Y212778D01*
X-6706Y209586D01*
X-7218Y207010D01*
X7620D01*
Y221848D01*
D02*
G37*
G36*
X27538Y201930D02*
X12700D01*
Y187092D01*
X15276Y187604D01*
X18468Y188926D01*
X21341Y190846D01*
X23784Y193289D01*
X25704Y196162D01*
X27026Y199354D01*
X27538Y201930D01*
D02*
G37*
G36*
X7620D02*
X-7218D01*
X-6706Y199354D01*
X-5384Y196162D01*
X-3464Y193289D01*
X-1021Y190846D01*
X1852Y188926D01*
X5044Y187604D01*
X7620Y187092D01*
Y201930D01*
D02*
G37*
G36*
X12700Y171048D02*
Y156210D01*
X27538D01*
X27026Y158786D01*
X25704Y161978D01*
X23784Y164851D01*
X21341Y167294D01*
X18468Y169214D01*
X15276Y170536D01*
X12700Y171048D01*
D02*
G37*
G36*
X7620D02*
X5044Y170536D01*
X1852Y169214D01*
X-1021Y167294D01*
X-3464Y164851D01*
X-5384Y161978D01*
X-6706Y158786D01*
X-7218Y156210D01*
X7620D01*
Y171048D01*
D02*
G37*
G36*
X27538Y151130D02*
X12700D01*
Y136292D01*
X15276Y136804D01*
X18468Y138126D01*
X21341Y140046D01*
X23784Y142489D01*
X25704Y145362D01*
X27026Y148554D01*
X27538Y151130D01*
D02*
G37*
G36*
X7620D02*
X-7218D01*
X-6706Y148554D01*
X-5384Y145362D01*
X-3464Y142489D01*
X-1021Y140046D01*
X1852Y138126D01*
X5044Y136804D01*
X7620Y136292D01*
Y151130D01*
D02*
G37*
G36*
X206810Y380400D02*
X176730D01*
Y300320D01*
X186590D01*
Y268300D01*
X183462Y267004D01*
X180589Y265084D01*
X178146Y262641D01*
X176226Y259768D01*
X174904Y256576D01*
X174230Y253188D01*
Y249732D01*
X174904Y246344D01*
X176226Y243152D01*
X178146Y240279D01*
X180589Y237836D01*
X183462Y235916D01*
X186654Y234594D01*
X190042Y233920D01*
X193498D01*
X196886Y234594D01*
X200078Y235916D01*
X202951Y237836D01*
X205394Y240279D01*
X207314Y243152D01*
X208636Y246344D01*
X209310Y249732D01*
Y253188D01*
X208636Y256576D01*
X207340Y259705D01*
X212965Y265331D01*
X215343D01*
X216395Y262791D01*
X216246Y262641D01*
X214326Y259768D01*
X213004Y256576D01*
X212330Y253188D01*
Y249732D01*
X213004Y246344D01*
X214326Y243152D01*
X216246Y240279D01*
X218689Y237836D01*
X221562Y235916D01*
X223654Y235049D01*
X223149Y232509D01*
X215900D01*
X213918Y232115D01*
X212237Y230993D01*
X200015Y218770D01*
X196886Y220066D01*
X193498Y220740D01*
X190042D01*
X186654Y220066D01*
X183462Y218744D01*
X180589Y216824D01*
X178146Y214381D01*
X176226Y211508D01*
X174904Y208316D01*
X174230Y204928D01*
Y201472D01*
X174904Y198084D01*
X176226Y194892D01*
X178146Y192019D01*
X180589Y189576D01*
X183462Y187656D01*
X186654Y186334D01*
X190042Y185660D01*
X193498D01*
X196886Y186334D01*
X200078Y187656D01*
X202951Y189576D01*
X205394Y192019D01*
X207314Y194892D01*
X208636Y198084D01*
X209310Y201472D01*
Y204928D01*
X208636Y208316D01*
X207340Y211445D01*
X218045Y222150D01*
X223149D01*
X223654Y219611D01*
X221562Y218744D01*
X218689Y216824D01*
X216246Y214381D01*
X214326Y211508D01*
X213004Y208316D01*
X212330Y204928D01*
Y201472D01*
X213004Y198084D01*
X214326Y194892D01*
X216246Y192019D01*
X218689Y189576D01*
X221562Y187656D01*
X224754Y186334D01*
X228143Y185660D01*
X231597D01*
X234986Y186334D01*
X238178Y187656D01*
X241051Y189576D01*
X243494Y192019D01*
X245414Y194892D01*
X246736Y198084D01*
X247410Y201472D01*
Y204928D01*
X246736Y208316D01*
X245414Y211508D01*
X243494Y214381D01*
X241051Y216824D01*
X238178Y218744D01*
X236086Y219611D01*
X236591Y222150D01*
X251460D01*
X253442Y222545D01*
X255123Y223668D01*
X260543Y229088D01*
X262890Y228116D01*
Y131294D01*
X260543Y130322D01*
X255123Y135743D01*
X253442Y136865D01*
X251460Y137260D01*
X239465D01*
X238782Y139799D01*
X241051Y141316D01*
X243494Y143759D01*
X245414Y146632D01*
X246736Y149824D01*
X247410Y153212D01*
Y156667D01*
X246736Y160056D01*
X245414Y163248D01*
X243494Y166121D01*
X241051Y168564D01*
X238178Y170484D01*
X234986Y171806D01*
X231597Y172480D01*
X228143D01*
X224754Y171806D01*
X221562Y170484D01*
X218689Y168564D01*
X216246Y166121D01*
X214326Y163248D01*
X213004Y160056D01*
X212330Y156667D01*
Y153212D01*
X213004Y149824D01*
X214326Y146632D01*
X216246Y143759D01*
X218689Y141316D01*
X220958Y139799D01*
X220275Y137260D01*
X216775D01*
X207340Y146695D01*
X208636Y149824D01*
X209310Y153212D01*
Y156667D01*
X208636Y160056D01*
X207314Y163248D01*
X205394Y166121D01*
X202951Y168564D01*
X200078Y170484D01*
X196886Y171806D01*
X193498Y172480D01*
X190042D01*
X186654Y171806D01*
X183462Y170484D01*
X180589Y168564D01*
X178146Y166121D01*
X176226Y163248D01*
X174904Y160056D01*
X174230Y156667D01*
Y153212D01*
X174904Y149824D01*
X176226Y146632D01*
X178146Y143759D01*
X180589Y141316D01*
X183462Y139396D01*
X186654Y138074D01*
X190042Y137400D01*
X193498D01*
X196886Y138074D01*
X200015Y139370D01*
X210968Y128418D01*
X212648Y127295D01*
X214630Y126901D01*
X249315D01*
X262890Y113325D01*
Y92809D01*
X244397D01*
X243345Y95350D01*
X243494Y95499D01*
X245414Y98372D01*
X246736Y101564D01*
X247410Y104952D01*
Y108407D01*
X246736Y111796D01*
X245414Y114988D01*
X243494Y117861D01*
X241051Y120304D01*
X238178Y122224D01*
X234986Y123546D01*
X231597Y124220D01*
X228143D01*
X224754Y123546D01*
X221562Y122224D01*
X218689Y120304D01*
X216246Y117861D01*
X214326Y114988D01*
X213004Y111796D01*
X212330Y108407D01*
Y104952D01*
X213004Y101564D01*
X214326Y98372D01*
X216246Y95499D01*
X216395Y95350D01*
X215343Y92809D01*
X207885D01*
X205295Y95400D01*
X205394Y95499D01*
X207314Y98372D01*
X208636Y101564D01*
X209310Y104952D01*
Y108407D01*
X208636Y111796D01*
X207314Y114988D01*
X205394Y117861D01*
X202951Y120304D01*
X200078Y122224D01*
X196886Y123546D01*
X193498Y124220D01*
X190042D01*
X186654Y123546D01*
X183462Y122224D01*
X180589Y120304D01*
X178146Y117861D01*
X176226Y114988D01*
X174904Y111796D01*
X174230Y108407D01*
Y104952D01*
X174904Y101564D01*
X176226Y98372D01*
X178146Y95499D01*
X180589Y93056D01*
X183462Y91136D01*
X186590Y89840D01*
Y57820D01*
X176730D01*
Y-22260D01*
X206810D01*
Y57820D01*
X196950D01*
Y85777D01*
X199296Y86749D01*
X202078Y83968D01*
X202078Y83968D01*
X203758Y82845D01*
X205740Y82451D01*
X268069D01*
X275590Y74930D01*
X286921D01*
Y63500D01*
X287020Y63401D01*
Y39370D01*
X299083Y26694D01*
X298175Y25787D01*
X296459Y22813D01*
X295791Y20320D01*
X308610D01*
X321429D01*
X323378Y22860D01*
X344642D01*
X346591Y20320D01*
X356870D01*
Y31371D01*
X355600Y32345D01*
Y54015D01*
X356870Y54989D01*
Y66040D01*
X346591D01*
X344642Y63500D01*
X323378D01*
X321429Y66040D01*
X308610D01*
Y71120D01*
X321429D01*
X321089Y72390D01*
X322709Y74930D01*
X345311D01*
X346931Y72390D01*
X346591Y71120D01*
X359410D01*
X372229D01*
X371889Y72390D01*
X373509Y74930D01*
X407918D01*
X408940Y73400D01*
Y71379D01*
X409713Y69512D01*
X411142Y68083D01*
X411480Y67944D01*
Y72390D01*
X416560D01*
Y67944D01*
X416898Y68083D01*
X418327Y69512D01*
X419100Y71379D01*
Y73400D01*
X420122Y74930D01*
X517138D01*
X518160Y73400D01*
Y71379D01*
X518933Y69512D01*
X520362Y68083D01*
X520700Y67944D01*
Y72390D01*
X525780D01*
Y67944D01*
X526118Y68083D01*
X527547Y69512D01*
X528320Y71379D01*
Y73400D01*
X529342Y74930D01*
X626358D01*
X627380Y73400D01*
Y71379D01*
X628153Y69512D01*
X629582Y68083D01*
X629920Y67944D01*
Y72390D01*
X635000D01*
Y67944D01*
X635338Y68083D01*
X636767Y69512D01*
X637540Y71379D01*
Y73400D01*
X638562Y74930D01*
X662811D01*
X664431Y72390D01*
X664091Y71120D01*
X676910D01*
Y68580D01*
X679450D01*
Y55761D01*
X681990Y53812D01*
Y32548D01*
X679450Y30599D01*
Y20320D01*
X689729D01*
X691678Y22860D01*
X712942D01*
X714891Y20320D01*
X725170D01*
Y30599D01*
X722630Y32548D01*
Y53812D01*
X725170Y55761D01*
Y68580D01*
X727710D01*
Y71120D01*
X740529D01*
X739861Y73613D01*
X738145Y76587D01*
X735717Y79015D01*
X734702Y79600D01*
X734285Y82774D01*
X739140Y87630D01*
Y270510D01*
X726440Y283210D01*
X643890D01*
Y285750D01*
X641350D01*
Y290196D01*
X641012Y290057D01*
X639583Y288628D01*
X638810Y286761D01*
Y284740D01*
X637788Y283210D01*
X539502D01*
X538480Y284740D01*
Y286761D01*
X537707Y288628D01*
X536278Y290057D01*
X535940Y290196D01*
Y285750D01*
X530860D01*
Y290196D01*
X530522Y290057D01*
X529093Y288628D01*
X528320Y286761D01*
Y284740D01*
X527298Y283210D01*
X430282D01*
X429260Y284740D01*
Y286761D01*
X428487Y288628D01*
X427058Y290057D01*
X426720Y290196D01*
Y285750D01*
X421640D01*
Y290196D01*
X421302Y290057D01*
X419873Y288628D01*
X419100Y286761D01*
Y284740D01*
X418078Y283210D01*
X321062D01*
X320040Y284740D01*
Y286761D01*
X319267Y288628D01*
X317838Y290057D01*
X317500Y290196D01*
Y285750D01*
X312420D01*
Y290196D01*
X312082Y290057D01*
X310653Y288628D01*
X309880Y286761D01*
Y284740D01*
X308858Y283210D01*
X275590D01*
X268069Y275690D01*
X210820D01*
X208838Y275295D01*
X207157Y274172D01*
X200015Y267030D01*
X196950Y268300D01*
Y300320D01*
X206810D01*
Y380400D01*
D02*
G37*
G36*
X155398Y124220D02*
X151943D01*
X148554Y123546D01*
X145362Y122224D01*
X142489Y120304D01*
X140046Y117861D01*
X138126Y114988D01*
X136804Y111796D01*
X136130Y108407D01*
Y104952D01*
X136804Y101564D01*
X138126Y98372D01*
X140046Y95499D01*
X142489Y93056D01*
X145362Y91136D01*
X148554Y89814D01*
X151943Y89140D01*
X155398D01*
X158786Y89814D01*
X161978Y91136D01*
X164851Y93056D01*
X167294Y95499D01*
X169214Y98372D01*
X170536Y101564D01*
X171210Y104952D01*
Y108407D01*
X170536Y111796D01*
X169214Y114988D01*
X167294Y117861D01*
X164851Y120304D01*
X161978Y122224D01*
X158786Y123546D01*
X155398Y124220D01*
D02*
G37*
G36*
X740529Y66040D02*
X730250D01*
Y55761D01*
X732743Y56429D01*
X735717Y58145D01*
X738145Y60573D01*
X739861Y63547D01*
X740529Y66040D01*
D02*
G37*
G36*
X372229D02*
X361950D01*
Y55761D01*
X364443Y56429D01*
X367417Y58145D01*
X369845Y60573D01*
X371561Y63547D01*
X372229Y66040D01*
D02*
G37*
G36*
X674370D02*
X664091D01*
X664759Y63547D01*
X666475Y60573D01*
X668903Y58145D01*
X671877Y56429D01*
X674370Y55761D01*
Y66040D01*
D02*
G37*
G36*
X117221Y30320D02*
X113919D01*
X110730Y29465D01*
X107870Y27815D01*
X105535Y25480D01*
X104283Y23311D01*
X103530Y23097D01*
X102210D01*
X101457Y23311D01*
X100204Y25480D01*
X97870Y27815D01*
X95010Y29465D01*
X92710Y30082D01*
Y17780D01*
Y5478D01*
X95010Y6095D01*
X97870Y7746D01*
X100204Y10080D01*
X101457Y12249D01*
X102210Y12463D01*
X103530D01*
X104283Y12249D01*
X105535Y10080D01*
X107870Y7746D01*
X110730Y6095D01*
X113919Y5240D01*
X117221D01*
X120410Y6095D01*
X123270Y7746D01*
X125604Y10080D01*
X126857Y12249D01*
X127610Y12463D01*
X128930D01*
X129683Y12249D01*
X130935Y10080D01*
X133270Y7746D01*
X136130Y6095D01*
X138430Y5478D01*
Y17780D01*
Y30082D01*
X136130Y29465D01*
X133270Y27815D01*
X130935Y25480D01*
X129683Y23311D01*
X128930Y23097D01*
X127610D01*
X126857Y23311D01*
X125604Y25480D01*
X123270Y27815D01*
X120410Y29465D01*
X117221Y30320D01*
D02*
G37*
G36*
X730250Y30599D02*
Y20320D01*
X740529D01*
X739861Y22813D01*
X738145Y25787D01*
X735717Y28215D01*
X732743Y29931D01*
X730250Y30599D01*
D02*
G37*
G36*
X361950D02*
Y20320D01*
X372229D01*
X371561Y22813D01*
X369845Y25787D01*
X367417Y28215D01*
X364443Y29931D01*
X361950Y30599D01*
D02*
G37*
G36*
X264810Y57820D02*
X252310D01*
Y20320D01*
X264810D01*
Y57820D01*
D02*
G37*
G36*
X143510Y30082D02*
Y20320D01*
X153272D01*
X152655Y22620D01*
X151004Y25480D01*
X148670Y27815D01*
X145810Y29465D01*
X143510Y30082D01*
D02*
G37*
G36*
X674370Y30599D02*
X671877Y29931D01*
X668903Y28215D01*
X666475Y25787D01*
X664759Y22813D01*
X664091Y20320D01*
X674370D01*
Y30599D01*
D02*
G37*
G36*
X247230Y57820D02*
X234730D01*
Y20320D01*
X247230D01*
Y57820D01*
D02*
G37*
G36*
X153272Y15240D02*
X143510D01*
Y5478D01*
X145810Y6095D01*
X148670Y7746D01*
X151004Y10080D01*
X152655Y12940D01*
X153272Y15240D01*
D02*
G37*
G36*
X66421Y30320D02*
X63119D01*
X59930Y29465D01*
X57070Y27815D01*
X54735Y25480D01*
X53085Y22620D01*
X52230Y19431D01*
Y16129D01*
X53085Y12940D01*
X54735Y10080D01*
X57070Y7746D01*
X59930Y6095D01*
X63119Y5240D01*
X66421D01*
X69610Y6095D01*
X72470Y7746D01*
X74805Y10080D01*
X76057Y12249D01*
X76810Y12463D01*
X78130D01*
X78883Y12249D01*
X80135Y10080D01*
X82470Y7746D01*
X85330Y6095D01*
X87630Y5478D01*
Y17780D01*
Y30082D01*
X85330Y29465D01*
X82470Y27815D01*
X80135Y25480D01*
X78883Y23311D01*
X78130Y23097D01*
X76810D01*
X76057Y23311D01*
X74805Y25480D01*
X72470Y27815D01*
X69610Y29465D01*
X66421Y30320D01*
D02*
G37*
G36*
X740529Y15240D02*
X730250D01*
Y4961D01*
X732743Y5629D01*
X735717Y7345D01*
X738145Y9773D01*
X739861Y12747D01*
X740529Y15240D01*
D02*
G37*
G36*
X689729D02*
X679450D01*
Y4961D01*
X681943Y5629D01*
X684917Y7345D01*
X687345Y9773D01*
X689061Y12747D01*
X689729Y15240D01*
D02*
G37*
G36*
X372229D02*
X361950D01*
Y4961D01*
X364443Y5629D01*
X367417Y7345D01*
X369845Y9773D01*
X371561Y12747D01*
X372229Y15240D01*
D02*
G37*
G36*
X321429D02*
X311150D01*
Y4961D01*
X313643Y5629D01*
X316617Y7345D01*
X319045Y9773D01*
X320761Y12747D01*
X321429Y15240D01*
D02*
G37*
G36*
X674370D02*
X664091D01*
X664759Y12747D01*
X666475Y9773D01*
X668903Y7345D01*
X671877Y5629D01*
X674370Y4961D01*
Y15240D01*
D02*
G37*
G36*
X356870D02*
X346591D01*
X347259Y12747D01*
X348975Y9773D01*
X351403Y7345D01*
X354377Y5629D01*
X356870Y4961D01*
Y15240D01*
D02*
G37*
G36*
X306070D02*
X295791D01*
X296459Y12747D01*
X298175Y9773D01*
X300603Y7345D01*
X303577Y5629D01*
X306070Y4961D01*
Y15240D01*
D02*
G37*
G36*
X725170D02*
X714891D01*
X715559Y12747D01*
X717275Y9773D01*
X719703Y7345D01*
X722677Y5629D01*
X725170Y4961D01*
Y15240D01*
D02*
G37*
G36*
X519430Y27481D02*
Y2540D01*
X544371D01*
X543752Y6449D01*
X542412Y10572D01*
X540444Y14434D01*
X537896Y17941D01*
X534831Y21006D01*
X531324Y23554D01*
X527462Y25522D01*
X523339Y26862D01*
X519430Y27481D01*
D02*
G37*
G36*
X514350D02*
X510441Y26862D01*
X506318Y25522D01*
X502456Y23554D01*
X498949Y21006D01*
X495884Y17941D01*
X493336Y14434D01*
X491368Y10572D01*
X490028Y6449D01*
X489409Y2540D01*
X514350D01*
Y27481D01*
D02*
G37*
G36*
X2540D02*
Y2540D01*
X27481D01*
X26862Y6449D01*
X25522Y10572D01*
X23554Y14434D01*
X21006Y17941D01*
X17941Y21006D01*
X14434Y23554D01*
X10572Y25522D01*
X6449Y26862D01*
X2540Y27481D01*
D02*
G37*
G36*
X-2540D02*
X-6449Y26862D01*
X-10572Y25522D01*
X-14434Y23554D01*
X-17941Y21006D01*
X-21006Y17941D01*
X-23554Y14434D01*
X-25522Y10572D01*
X-26862Y6449D01*
X-27481Y2540D01*
X-2540D01*
Y27481D01*
D02*
G37*
G36*
X264810Y15240D02*
X252310D01*
Y-22260D01*
X264810D01*
Y15240D01*
D02*
G37*
G36*
X247230D02*
X234730D01*
Y-22260D01*
X247230D01*
Y15240D01*
D02*
G37*
G36*
X544371Y-2540D02*
X519430D01*
Y-27481D01*
X523339Y-26862D01*
X527462Y-25522D01*
X531324Y-23554D01*
X534831Y-21006D01*
X537896Y-17941D01*
X540444Y-14434D01*
X542412Y-10572D01*
X543752Y-6449D01*
X544371Y-2540D01*
D02*
G37*
G36*
X514350D02*
X489409D01*
X490028Y-6449D01*
X491368Y-10572D01*
X493336Y-14434D01*
X495884Y-17941D01*
X498949Y-21006D01*
X502456Y-23554D01*
X506318Y-25522D01*
X510441Y-26862D01*
X514350Y-27481D01*
Y-2540D01*
D02*
G37*
G36*
X27481D02*
X2540D01*
Y-27481D01*
X6449Y-26862D01*
X10572Y-25522D01*
X14434Y-23554D01*
X17941Y-21006D01*
X21006Y-17941D01*
X23554Y-14434D01*
X25522Y-10572D01*
X26862Y-6449D01*
X27481Y-2540D01*
D02*
G37*
G36*
X-2540D02*
X-27481D01*
X-26862Y-6449D01*
X-25522Y-10572D01*
X-23554Y-14434D01*
X-21006Y-17941D01*
X-17941Y-21006D01*
X-14434Y-23554D01*
X-10572Y-25522D01*
X-6449Y-26862D01*
X-2540Y-27481D01*
Y-2540D01*
D02*
G37*
%LPD*%
G36*
X262890Y246085D02*
X249315Y232509D01*
X236591D01*
X236086Y235049D01*
X238178Y235916D01*
X241051Y237836D01*
X243494Y240279D01*
X245414Y243152D01*
X246736Y246344D01*
X247410Y249732D01*
Y253188D01*
X246736Y256576D01*
X245414Y259768D01*
X243494Y262641D01*
X243345Y262791D01*
X244397Y265331D01*
X262890D01*
Y246085D01*
D02*
G37*
D11*
X646600Y179260D02*
X657860D01*
X646390Y179050D02*
X646600Y179260D01*
X629340Y171260D02*
X657860D01*
X537380Y179260D02*
X548640D01*
X537170Y179050D02*
X537380Y179260D01*
X520120Y171260D02*
X548640D01*
X298450Y171100D02*
X330200D01*
X720080Y144770D02*
X731180D01*
X720070Y144760D02*
X720080Y144770D01*
X731180D02*
X731190Y144780D01*
X699440Y136740D02*
X699770D01*
X699810Y136780D01*
X731190D01*
X410900Y171260D02*
X439420D01*
X427950Y179050D02*
X428160Y179260D01*
X439420D01*
X318770Y178910D02*
X318865Y179005D01*
X330105D01*
D41*
X699770Y147740D02*
D03*
Y136740D02*
D03*
X298450Y171030D02*
D03*
Y182030D02*
D03*
X407670Y171030D02*
D03*
Y182030D02*
D03*
X516890Y171030D02*
D03*
Y182030D02*
D03*
X626110Y171030D02*
D03*
Y182030D02*
D03*
D43*
X210820Y270510D02*
X417830D01*
X191770Y251460D02*
X210820Y270510D01*
X417830D02*
X527050D01*
X191770Y101600D02*
X205740Y87630D01*
X317500D01*
X426720D01*
X535940D01*
X693420D01*
X283210Y100330D02*
X665480D01*
X191770Y251460D02*
Y340360D01*
X631190Y205740D02*
Y245110D01*
X521970Y205740D02*
Y245110D01*
X412750Y205740D02*
Y245110D01*
X704850Y171450D02*
Y245110D01*
X303530Y205740D02*
Y245110D01*
X290830Y257810D02*
X303530Y245110D01*
X629920Y270510D02*
X703580D01*
X527050D02*
X629920D01*
X191770Y17780D02*
Y101600D01*
Y106680D01*
X618490Y257810D02*
X692150D01*
X704850Y245110D01*
X251460Y132080D02*
X283210Y100330D01*
X214630Y132080D02*
X251460D01*
X281940Y257810D02*
X290830D01*
X400050D01*
X412750Y245110D01*
X400050Y257810D02*
X509270D01*
X618490D01*
X509270D02*
X521970Y245110D01*
X618490Y257810D02*
X631190Y245110D01*
X251460Y227330D02*
X281940Y257810D01*
X215900Y227330D02*
X251460D01*
X191770Y203200D02*
X215900Y227330D01*
X191770Y154940D02*
X214630Y132080D01*
D44*
X86360Y154940D02*
X153670D01*
X71120Y170180D02*
Y332617D01*
Y170180D02*
X86360Y154940D01*
X64770Y338967D02*
Y341630D01*
Y338967D02*
X71120Y332617D01*
X115570Y215900D02*
X128270Y203200D01*
X115570Y215900D02*
Y341630D01*
X128270Y203200D02*
X153670D01*
D45*
X10160Y153670D02*
D03*
Y204470D02*
D03*
X229870Y251460D02*
D03*
X191770D02*
D03*
X153670D02*
D03*
X229870Y203200D02*
D03*
X191770D02*
D03*
X153670D02*
D03*
X229870Y154940D02*
D03*
X191770D02*
D03*
X153670D02*
D03*
X229870Y106680D02*
D03*
X191770D02*
D03*
X153670D02*
D03*
D46*
X516890Y358140D02*
D03*
X0D02*
D03*
Y0D02*
D03*
X516890D02*
D03*
D47*
X702310Y43180D02*
D03*
X140970Y17780D02*
D03*
X115570D02*
D03*
X90170D02*
D03*
X64770D02*
D03*
X334010Y43180D02*
D03*
X140970Y341630D02*
D03*
X115570D02*
D03*
X90170D02*
D03*
X64770D02*
D03*
D48*
X676910Y17780D02*
D03*
Y68580D02*
D03*
X727710D02*
D03*
Y17780D02*
D03*
X308610D02*
D03*
Y68580D02*
D03*
X359410D02*
D03*
Y17780D02*
D03*
D49*
X646390Y179050D02*
D03*
X537170D02*
D03*
X273050Y270510D02*
D03*
X308610D02*
D03*
X414020Y72390D02*
D03*
X314960Y285750D02*
D03*
X424180D02*
D03*
X533400D02*
D03*
X643890D02*
D03*
X632460Y72390D02*
D03*
X523240D02*
D03*
X665480Y100330D02*
D03*
X693420Y87630D02*
D03*
X720070Y144760D02*
D03*
X535940Y87630D02*
D03*
X645160D02*
D03*
X426720D02*
D03*
X317500D02*
D03*
X631190Y205740D02*
D03*
X521970D02*
D03*
X412750D02*
D03*
X527050Y270510D02*
D03*
X417830D02*
D03*
X703580D02*
D03*
X303530Y205740D02*
D03*
X427950Y179050D02*
D03*
X318770Y178910D02*
D03*
X704850Y171450D02*
D03*
X629920Y270510D02*
D03*
D50*
X249770Y340360D02*
D03*
X191770D02*
D03*
Y17780D02*
D03*
X249770D02*
D03*
D51*
X548640Y171260D02*
D03*
Y179260D02*
D03*
X731190Y136780D02*
D03*
Y144780D02*
D03*
X657860Y179260D02*
D03*
Y171260D02*
D03*
X330200Y171100D02*
D03*
Y179100D02*
D03*
X439420Y171260D02*
D03*
Y179260D02*
D03*
M02*
