G04*
G04 #@! TF.GenerationSoftware,Altium Limited,Altium Designer,22.10.1 (41)*
G04*
G04 Layer_Color=8388736*
%FSLAX44Y44*%
%MOMM*%
G71*
G04*
G04 #@! TF.SameCoordinates,7D2A880A-0552-440C-8A1C-2383AA23BDA6*
G04*
G04*
G04 #@! TF.FilePolarity,Positive*
G04*
G01*
G75*
%ADD12C,0.2000*%
D12*
X689270Y152740D02*
X710270D01*
Y131740D02*
Y152740D01*
X689270Y131740D02*
X710270D01*
X689270D02*
Y152740D01*
X344551Y117348D02*
X392049D01*
X344551D02*
Y151892D01*
X392049D01*
Y117348D02*
Y151892D01*
X201020Y69640D02*
Y75140D01*
X190520D02*
X201020D01*
X190520Y69640D02*
Y75140D01*
Y69640D02*
X201020D01*
X190520Y283000D02*
Y288500D01*
Y283000D02*
X201020D01*
Y288500D01*
X190520D02*
X201020D01*
X287950Y166030D02*
Y187030D01*
Y166030D02*
X308950D01*
Y187030D01*
X287950D02*
X308950D01*
X397170Y166030D02*
Y187030D01*
Y166030D02*
X418170D01*
Y187030D01*
X397170D02*
X418170D01*
X506390Y166030D02*
Y187030D01*
Y166030D02*
X527390D01*
Y187030D01*
X506390D02*
X527390D01*
X615610Y166030D02*
Y187030D01*
Y166030D02*
X636610D01*
Y187030D01*
X615610D02*
X636610D01*
X501269Y206248D02*
Y240792D01*
X453771D02*
X501269D01*
X453771Y206248D02*
Y240792D01*
Y206248D02*
X501269D01*
Y117348D02*
Y151892D01*
X453771D02*
X501269D01*
X453771Y117348D02*
Y151892D01*
Y117348D02*
X501269D01*
X562991D02*
X610489D01*
X562991D02*
Y151892D01*
X610489D01*
Y117348D02*
Y151892D01*
X562991Y206248D02*
X610489D01*
X562991D02*
Y240792D01*
X610489D01*
Y206248D02*
Y240792D01*
X392049Y206248D02*
Y240792D01*
X344551D02*
X392049D01*
X344551Y206248D02*
Y240792D01*
Y206248D02*
X392049D01*
M02*
