G04*
G04 #@! TF.GenerationSoftware,Altium Limited,Altium Designer,22.10.1 (41)*
G04*
G04 Layer_Color=16711935*
%FSLAX44Y44*%
%MOMM*%
G71*
G04*
G04 #@! TF.SameCoordinates,7D2A880A-0552-440C-8A1C-2383AA23BDA6*
G04*
G04*
G04 #@! TF.FilePolarity,Positive*
G04*
G01*
G75*
%ADD13C,0.1270*%
%ADD55C,0.1000*%
D13*
X375230Y170570D02*
X384230D01*
X375230Y187570D02*
X384230D01*
X375230Y170570D02*
Y187570D01*
X384230Y170570D02*
Y187570D01*
X322860Y239620D02*
X332460D01*
X322860Y222620D02*
X332460D01*
Y239620D01*
X322860Y222620D02*
Y239620D01*
X534629Y151021D02*
X542407Y143243D01*
X538589Y154981D02*
X546367Y147203D01*
X542407Y143243D02*
X546367Y147203D01*
X534629Y151021D02*
X538589Y154981D01*
X541300Y239620D02*
X550900D01*
X541300Y222620D02*
X550900D01*
Y239620D01*
X541300Y222620D02*
Y239620D01*
X593670Y170570D02*
X602670D01*
X593670Y187570D02*
X602670D01*
X593670Y170570D02*
Y187570D01*
X602670Y170570D02*
Y187570D01*
X566200Y187700D02*
Y193300D01*
X576800D01*
Y187700D02*
Y193300D01*
X566200Y187700D02*
X576800D01*
X566200Y164840D02*
Y170440D01*
X576800D01*
Y164840D02*
Y170440D01*
X566200Y164840D02*
X576800D01*
X432080Y222620D02*
Y239620D01*
X441680Y222620D02*
Y239620D01*
X432080Y222620D02*
X441680D01*
X432080Y239620D02*
X441680D01*
X347760Y187700D02*
X358360D01*
Y193300D01*
X347760D02*
X358360D01*
X347760Y187700D02*
Y193300D01*
X425409Y151021D02*
X433187Y143243D01*
X429369Y154981D02*
X437147Y147203D01*
X433187Y143243D02*
X437147Y147203D01*
X425409Y151021D02*
X429369Y154981D01*
X456980Y187700D02*
X467580D01*
Y193300D01*
X456980D02*
X467580D01*
X456980Y187700D02*
Y193300D01*
Y164840D02*
X467580D01*
Y170440D01*
X456980D02*
X467580D01*
X456980Y164840D02*
Y170440D01*
X347760Y164840D02*
X358360D01*
Y170440D01*
X347760D02*
X358360D01*
X347760Y164840D02*
Y170440D01*
X316189Y151021D02*
X323967Y143243D01*
X320149Y154981D02*
X327927Y147203D01*
X323967Y143243D02*
X327927Y147203D01*
X316189Y151021D02*
X320149Y154981D01*
X493450Y170570D02*
Y187570D01*
X484450Y170570D02*
Y187570D01*
X493450D01*
X484450Y170570D02*
X493450D01*
D55*
X653510Y144280D02*
Y154780D01*
X659010Y144280D02*
Y154780D01*
X653510Y144280D02*
X659010D01*
X653510Y154780D02*
X659010D01*
X645930Y128060D02*
X656430D01*
X645930Y133560D02*
X656430D01*
Y128060D02*
Y133560D01*
X645930Y128060D02*
Y133560D01*
X675520Y144280D02*
Y154780D01*
X670020Y144280D02*
Y154780D01*
X675520D01*
X670020Y144280D02*
X675520D01*
Y120810D02*
Y131310D01*
X670020Y120810D02*
Y131310D01*
X675520D01*
X670020Y120810D02*
X675520D01*
X279730Y305280D02*
X289230D01*
X279730Y288780D02*
X289230D01*
Y305280D01*
X279730Y288780D02*
Y305280D01*
Y342110D02*
X289230D01*
X279730Y325610D02*
X289230D01*
Y342110D01*
X279730Y325610D02*
Y342110D01*
X670310Y11180D02*
Y75180D01*
X734310D01*
Y11180D02*
Y75180D01*
X670310Y11180D02*
X734310D01*
X302010D02*
Y75180D01*
X366010D01*
Y11180D02*
Y75180D01*
X302010Y11180D02*
X366010D01*
M02*
