G04*
G04 #@! TF.GenerationSoftware,Altium Limited,Altium Designer,22.10.1 (41)*
G04*
G04 Layer_Color=8388736*
%FSLAX44Y44*%
%MOMM*%
G71*
G04*
G04 #@! TF.SameCoordinates,7D2A880A-0552-440C-8A1C-2383AA23BDA6*
G04*
G04*
G04 #@! TF.FilePolarity,Negative*
G04*
G01*
G75*
%ADD26R,0.8532X0.9032*%
%ADD27R,0.9032X0.8532*%
G04:AMPARAMS|DCode=28|XSize=0.7032mm|YSize=0.4532mm|CornerRadius=0.1516mm|HoleSize=0mm|Usage=FLASHONLY|Rotation=0.000|XOffset=0mm|YOffset=0mm|HoleType=Round|Shape=RoundedRectangle|*
%AMROUNDEDRECTD28*
21,1,0.7032,0.1500,0,0,0.0*
21,1,0.4000,0.4532,0,0,0.0*
1,1,0.3032,0.2000,-0.0750*
1,1,0.3032,-0.2000,-0.0750*
1,1,0.3032,-0.2000,0.0750*
1,1,0.3032,0.2000,0.0750*
%
%ADD28ROUNDEDRECTD28*%
G04:AMPARAMS|DCode=29|XSize=1.1032mm|YSize=1.8032mm|CornerRadius=0.1511mm|HoleSize=0mm|Usage=FLASHONLY|Rotation=0.000|XOffset=0mm|YOffset=0mm|HoleType=Round|Shape=RoundedRectangle|*
%AMROUNDEDRECTD29*
21,1,1.1032,1.5010,0,0,0.0*
21,1,0.8010,1.8032,0,0,0.0*
1,1,0.3022,0.4005,-0.7505*
1,1,0.3022,-0.4005,-0.7505*
1,1,0.3022,-0.4005,0.7505*
1,1,0.3022,0.4005,0.7505*
%
%ADD29ROUNDEDRECTD29*%
%ADD30R,1.1332X0.9932*%
%ADD31R,1.1732X1.1032*%
%ADD32R,1.1032X1.6032*%
%ADD33R,1.1532X1.0032*%
%ADD34R,0.7232X0.7232*%
G04:AMPARAMS|DCode=35|XSize=0.7132mm|YSize=0.8032mm|CornerRadius=0mm|HoleSize=0mm|Usage=FLASHONLY|Rotation=315.000|XOffset=0mm|YOffset=0mm|HoleType=Round|Shape=Rectangle|*
%AMROTATEDRECTD35*
4,1,4,-0.5361,-0.0318,0.0318,0.5361,0.5361,0.0318,-0.0318,-0.5361,-0.5361,-0.0318,0.0*
%
%ADD35ROTATEDRECTD35*%

G04:AMPARAMS|DCode=36|XSize=0.8032mm|YSize=0.7432mm|CornerRadius=0.2447mm|HoleSize=0mm|Usage=FLASHONLY|Rotation=270.000|XOffset=0mm|YOffset=0mm|HoleType=Round|Shape=RoundedRectangle|*
%AMROUNDEDRECTD36*
21,1,0.8032,0.2538,0,0,270.0*
21,1,0.3138,0.7432,0,0,270.0*
1,1,0.4894,-0.1269,-0.1569*
1,1,0.4894,-0.1269,0.1569*
1,1,0.4894,0.1269,0.1569*
1,1,0.4894,0.1269,-0.1569*
%
%ADD36ROUNDEDRECTD36*%
%ADD37C,3.2032*%
%ADD38C,5.2032*%
%ADD39C,2.2032*%
%ADD40C,2.3032*%
%ADD41C,0.5000*%
%ADD42C,0.7112*%
D26*
X656260Y144780D02*
D03*
Y154280D02*
D03*
X672770D02*
D03*
Y144780D02*
D03*
Y130810D02*
D03*
Y121310D02*
D03*
D27*
X655930Y130810D02*
D03*
X646430D02*
D03*
D28*
X690270Y149740D02*
D03*
Y144740D02*
D03*
Y139740D02*
D03*
Y134740D02*
D03*
X709270D02*
D03*
Y139740D02*
D03*
Y144740D02*
D03*
Y149740D02*
D03*
X307950Y184030D02*
D03*
Y179030D02*
D03*
Y174030D02*
D03*
Y169030D02*
D03*
X288950D02*
D03*
Y174030D02*
D03*
Y179030D02*
D03*
Y184030D02*
D03*
X417170D02*
D03*
Y179030D02*
D03*
Y174030D02*
D03*
Y169030D02*
D03*
X398170D02*
D03*
Y174030D02*
D03*
Y179030D02*
D03*
Y184030D02*
D03*
X526390D02*
D03*
Y179030D02*
D03*
Y174030D02*
D03*
Y169030D02*
D03*
X507390D02*
D03*
Y174030D02*
D03*
Y179030D02*
D03*
Y184030D02*
D03*
X635610D02*
D03*
Y179030D02*
D03*
Y174030D02*
D03*
Y169030D02*
D03*
X616610D02*
D03*
Y174030D02*
D03*
Y179030D02*
D03*
Y184030D02*
D03*
D29*
X699770Y142240D02*
D03*
X298450Y176530D02*
D03*
X407670D02*
D03*
X516890D02*
D03*
X626110D02*
D03*
D30*
X379730Y187270D02*
D03*
Y170870D02*
D03*
X598170Y187270D02*
D03*
Y170870D02*
D03*
X488950D02*
D03*
Y187270D02*
D03*
D31*
X327660Y223520D02*
D03*
Y238720D02*
D03*
X546100Y223520D02*
D03*
Y238720D02*
D03*
X436880D02*
D03*
Y223520D02*
D03*
D32*
X387800Y134620D02*
D03*
X348800D02*
D03*
X458020Y223520D02*
D03*
X497020D02*
D03*
X458020Y134620D02*
D03*
X497020D02*
D03*
X606240D02*
D03*
X567240D02*
D03*
X606240Y223520D02*
D03*
X567240D02*
D03*
X348800D02*
D03*
X387800D02*
D03*
D33*
X284480Y303530D02*
D03*
Y290530D02*
D03*
Y340360D02*
D03*
Y327360D02*
D03*
D34*
X191770Y72390D02*
D03*
X199770D02*
D03*
Y285750D02*
D03*
X191770D02*
D03*
D35*
X537210Y152400D02*
D03*
X543786Y145824D02*
D03*
X427990Y152400D02*
D03*
X434566Y145824D02*
D03*
X318770Y152400D02*
D03*
X325346Y145824D02*
D03*
D36*
X567200Y190500D02*
D03*
X575800D02*
D03*
X567200Y167640D02*
D03*
X575800D02*
D03*
X357360Y190500D02*
D03*
X348760D02*
D03*
X466580D02*
D03*
X457980D02*
D03*
X466580Y167640D02*
D03*
X457980D02*
D03*
X357360D02*
D03*
X348760D02*
D03*
D37*
X10160Y153670D02*
D03*
Y204470D02*
D03*
X229870Y251460D02*
D03*
X191770D02*
D03*
X153670D02*
D03*
X229870Y203200D02*
D03*
X191770D02*
D03*
X153670D02*
D03*
X229870Y154940D02*
D03*
X191770D02*
D03*
X153670D02*
D03*
X229870Y106680D02*
D03*
X191770D02*
D03*
X153670D02*
D03*
D38*
X516890Y358140D02*
D03*
X0D02*
D03*
Y0D02*
D03*
X516890D02*
D03*
D39*
X702310Y43180D02*
D03*
X140970Y17780D02*
D03*
X115570D02*
D03*
X90170D02*
D03*
X64770D02*
D03*
X334010Y43180D02*
D03*
X140970Y341630D02*
D03*
X115570D02*
D03*
X90170D02*
D03*
X64770D02*
D03*
D40*
X676910Y17780D02*
D03*
Y68580D02*
D03*
X727710D02*
D03*
Y17780D02*
D03*
X308610D02*
D03*
Y68580D02*
D03*
X359410D02*
D03*
Y17780D02*
D03*
D41*
X699770Y147740D02*
D03*
Y136740D02*
D03*
X298450Y171030D02*
D03*
Y182030D02*
D03*
X407670Y171030D02*
D03*
Y182030D02*
D03*
X516890Y171030D02*
D03*
Y182030D02*
D03*
X626110Y171030D02*
D03*
Y182030D02*
D03*
D42*
X646390Y179050D02*
D03*
X537170D02*
D03*
X273050Y270510D02*
D03*
X308610D02*
D03*
X414020Y72390D02*
D03*
X314960Y285750D02*
D03*
X424180D02*
D03*
X533400D02*
D03*
X643890D02*
D03*
X632460Y72390D02*
D03*
X523240D02*
D03*
X665480Y100330D02*
D03*
X693420Y87630D02*
D03*
X720070Y144760D02*
D03*
X535940Y87630D02*
D03*
X645160D02*
D03*
X426720D02*
D03*
X317500D02*
D03*
X631190Y205740D02*
D03*
X521970D02*
D03*
X412750D02*
D03*
X527050Y270510D02*
D03*
X417830D02*
D03*
X703580D02*
D03*
X303530Y205740D02*
D03*
X427950Y179050D02*
D03*
X318770Y178910D02*
D03*
X704850Y171450D02*
D03*
X629920Y270510D02*
D03*
M02*
