G04*
G04 #@! TF.GenerationSoftware,Altium Limited,Altium Designer,22.10.1 (41)*
G04*
G04 Layer_Color=2752767*
%FSLAX44Y44*%
%MOMM*%
G71*
G04*
G04 #@! TF.SameCoordinates,7D2A880A-0552-440C-8A1C-2383AA23BDA6*
G04*
G04*
G04 #@! TF.FilePolarity,Positive*
G04*
G01*
G75*
%ADD57C,0.0508*%
%ADD58C,0.0677*%
D57*
X10160Y151638D02*
X8128Y155702D01*
X12192D01*
X10160Y151638D01*
Y202438D02*
X8128Y206502D01*
X12192D01*
X10160Y202438D01*
X229870Y249428D02*
X227838Y253492D01*
X231902D01*
X229870Y249428D01*
X191770D02*
X189738Y253492D01*
X193802D01*
X191770Y249428D01*
X153670D02*
X151638Y253492D01*
X155702D01*
X153670Y249428D01*
X229870Y201168D02*
X227838Y205232D01*
X231902D01*
X229870Y201168D01*
X191770D02*
X189738Y205232D01*
X193802D01*
X191770Y201168D01*
X153670D02*
X151638Y205232D01*
X155702D01*
X153670Y201168D01*
X229870Y152908D02*
X227838Y156972D01*
X231902D01*
X229870Y152908D01*
X191770D02*
X189738Y156972D01*
X193802D01*
X191770Y152908D01*
X153670D02*
X151638Y156972D01*
X155702D01*
X153670Y152908D01*
X229870Y104648D02*
X227838Y108712D01*
X231902D01*
X229870Y104648D01*
X191770D02*
X189738Y108712D01*
X193802D01*
X191770Y104648D01*
X153670D02*
X151638Y108712D01*
X155702D01*
X153670Y104648D01*
X514858Y356108D02*
X515874D01*
X516890Y357124D01*
X517906Y356108D01*
X518922D01*
Y357124D01*
X517906Y358140D01*
X518922Y359156D01*
Y360172D01*
X517906D01*
X516890Y359156D01*
X515874Y360172D01*
X514858D01*
Y359156D01*
X515874Y358140D01*
X514858Y357124D01*
Y356108D01*
X674878Y15748D02*
Y19812D01*
X678942D01*
Y15748D01*
X674878D01*
Y66548D02*
Y70612D01*
X678942D01*
Y66548D01*
X674878D01*
X725678D02*
Y70612D01*
X729742D01*
Y66548D01*
X725678D01*
Y15748D02*
Y19812D01*
X729742D01*
Y15748D01*
X725678D01*
X-2032Y356108D02*
X-1016D01*
X0Y357124D01*
X1016Y356108D01*
X2032D01*
Y357124D01*
X1016Y358140D01*
X2032Y359156D01*
Y360172D01*
X1016D01*
X0Y359156D01*
X-1016Y360172D01*
X-2032D01*
Y359156D01*
X-1016Y358140D01*
X-2032Y357124D01*
Y356108D01*
Y-2032D02*
X-1016D01*
X0Y-1016D01*
X1016Y-2032D01*
X2032D01*
Y-1016D01*
X1016Y0D01*
X2032Y1016D01*
Y2032D01*
X1016D01*
X0Y1016D01*
X-1016Y2032D01*
X-2032D01*
Y1016D01*
X-1016Y0D01*
X-2032Y-1016D01*
Y-2032D01*
X138938Y15748D02*
X139954Y17780D01*
X138938Y19812D01*
X140970Y18796D01*
X143002Y19812D01*
X141986Y17780D01*
X143002Y15748D01*
X140970Y16764D01*
X138938Y15748D01*
X113538D02*
X114554Y17780D01*
X113538Y19812D01*
X115570Y18796D01*
X117602Y19812D01*
X116586Y17780D01*
X117602Y15748D01*
X115570Y16764D01*
X113538Y15748D01*
X88138D02*
X89154Y17780D01*
X88138Y19812D01*
X90170Y18796D01*
X92202Y19812D01*
X91186Y17780D01*
X92202Y15748D01*
X90170Y16764D01*
X88138Y15748D01*
X62738D02*
X63754Y17780D01*
X62738Y19812D01*
X64770Y18796D01*
X66802Y19812D01*
X65786Y17780D01*
X66802Y15748D01*
X64770Y16764D01*
X62738Y15748D01*
X306578D02*
Y19812D01*
X310642D01*
Y15748D01*
X306578D01*
Y66548D02*
Y70612D01*
X310642D01*
Y66548D01*
X306578D01*
X357378D02*
Y70612D01*
X361442D01*
Y66548D01*
X357378D01*
Y15748D02*
Y19812D01*
X361442D01*
Y15748D01*
X357378D01*
X514858Y-2032D02*
X515874D01*
X516890Y-1016D01*
X517906Y-2032D01*
X518922D01*
Y-1016D01*
X517906Y0D01*
X518922Y1016D01*
Y2032D01*
X517906D01*
X516890Y1016D01*
X515874Y2032D01*
X514858D01*
Y1016D01*
X515874Y0D01*
X514858Y-1016D01*
Y-2032D01*
X138938Y339598D02*
X139954Y341630D01*
X138938Y343662D01*
X140970Y342646D01*
X143002Y343662D01*
X141986Y341630D01*
X143002Y339598D01*
X140970Y340614D01*
X138938Y339598D01*
X113538D02*
X114554Y341630D01*
X113538Y343662D01*
X115570Y342646D01*
X117602Y343662D01*
X116586Y341630D01*
X117602Y339598D01*
X115570Y340614D01*
X113538Y339598D01*
X88138D02*
X89154Y341630D01*
X88138Y343662D01*
X90170Y342646D01*
X92202Y343662D01*
X91186Y341630D01*
X92202Y339598D01*
X90170Y340614D01*
X88138Y339598D01*
X62738D02*
X63754Y341630D01*
X62738Y343662D01*
X64770Y342646D01*
X66802Y343662D01*
X65786Y341630D01*
X66802Y339598D01*
X64770Y340614D01*
X62738Y339598D01*
X699770Y145708D02*
X700786Y146724D01*
X701802D01*
X700786Y147740D01*
X701802Y148756D01*
X700786D01*
X699770Y149772D01*
X698754Y148756D01*
X697738D01*
X698754Y147740D01*
X697738Y146724D01*
X698754D01*
X699770Y145708D01*
Y134708D02*
X700786Y135724D01*
X701802D01*
X700786Y136740D01*
X701802Y137756D01*
X700786D01*
X699770Y138772D01*
X698754Y137756D01*
X697738D01*
X698754Y136740D01*
X697738Y135724D01*
X698754D01*
X699770Y134708D01*
X646390Y177018D02*
X647406Y178034D01*
X648422D01*
X647406Y179050D01*
X648422Y180066D01*
X647406D01*
X646390Y181082D01*
X645374Y180066D01*
X644358D01*
X645374Y179050D01*
X644358Y178034D01*
X645374D01*
X646390Y177018D01*
X537170D02*
X538186Y178034D01*
X539202D01*
X538186Y179050D01*
X539202Y180066D01*
X538186D01*
X537170Y181082D01*
X536154Y180066D01*
X535138D01*
X536154Y179050D01*
X535138Y178034D01*
X536154D01*
X537170Y177018D01*
X273050Y268478D02*
X274066Y269494D01*
X275082D01*
X274066Y270510D01*
X275082Y271526D01*
X274066D01*
X273050Y272542D01*
X272034Y271526D01*
X271018D01*
X272034Y270510D01*
X271018Y269494D01*
X272034D01*
X273050Y268478D01*
X308610D02*
X309626Y269494D01*
X310642D01*
X309626Y270510D01*
X310642Y271526D01*
X309626D01*
X308610Y272542D01*
X307594Y271526D01*
X306578D01*
X307594Y270510D01*
X306578Y269494D01*
X307594D01*
X308610Y268478D01*
X414020Y70358D02*
X415036Y71374D01*
X416052D01*
X415036Y72390D01*
X416052Y73406D01*
X415036D01*
X414020Y74422D01*
X413004Y73406D01*
X411988D01*
X413004Y72390D01*
X411988Y71374D01*
X413004D01*
X414020Y70358D01*
X314960Y283718D02*
X315976Y284734D01*
X316992D01*
X315976Y285750D01*
X316992Y286766D01*
X315976D01*
X314960Y287782D01*
X313944Y286766D01*
X312928D01*
X313944Y285750D01*
X312928Y284734D01*
X313944D01*
X314960Y283718D01*
X424180D02*
X425196Y284734D01*
X426212D01*
X425196Y285750D01*
X426212Y286766D01*
X425196D01*
X424180Y287782D01*
X423164Y286766D01*
X422148D01*
X423164Y285750D01*
X422148Y284734D01*
X423164D01*
X424180Y283718D01*
X533400D02*
X534416Y284734D01*
X535432D01*
X534416Y285750D01*
X535432Y286766D01*
X534416D01*
X533400Y287782D01*
X532384Y286766D01*
X531368D01*
X532384Y285750D01*
X531368Y284734D01*
X532384D01*
X533400Y283718D01*
X643890D02*
X644906Y284734D01*
X645922D01*
X644906Y285750D01*
X645922Y286766D01*
X644906D01*
X643890Y287782D01*
X642874Y286766D01*
X641858D01*
X642874Y285750D01*
X641858Y284734D01*
X642874D01*
X643890Y283718D01*
X632460Y70358D02*
X633476Y71374D01*
X634492D01*
X633476Y72390D01*
X634492Y73406D01*
X633476D01*
X632460Y74422D01*
X631444Y73406D01*
X630428D01*
X631444Y72390D01*
X630428Y71374D01*
X631444D01*
X632460Y70358D01*
X523240D02*
X524256Y71374D01*
X525272D01*
X524256Y72390D01*
X525272Y73406D01*
X524256D01*
X523240Y74422D01*
X522224Y73406D01*
X521208D01*
X522224Y72390D01*
X521208Y71374D01*
X522224D01*
X523240Y70358D01*
X665480Y98298D02*
X666496Y99314D01*
X667512D01*
X666496Y100330D01*
X667512Y101346D01*
X666496D01*
X665480Y102362D01*
X664464Y101346D01*
X663448D01*
X664464Y100330D01*
X663448Y99314D01*
X664464D01*
X665480Y98298D01*
X693420Y85598D02*
X694436Y86614D01*
X695452D01*
X694436Y87630D01*
X695452Y88646D01*
X694436D01*
X693420Y89662D01*
X692404Y88646D01*
X691388D01*
X692404Y87630D01*
X691388Y86614D01*
X692404D01*
X693420Y85598D01*
X720070Y142728D02*
X721086Y143744D01*
X722102D01*
X721086Y144760D01*
X722102Y145776D01*
X721086D01*
X720070Y146792D01*
X719054Y145776D01*
X718038D01*
X719054Y144760D01*
X718038Y143744D01*
X719054D01*
X720070Y142728D01*
X535940Y85598D02*
X536956Y86614D01*
X537972D01*
X536956Y87630D01*
X537972Y88646D01*
X536956D01*
X535940Y89662D01*
X534924Y88646D01*
X533908D01*
X534924Y87630D01*
X533908Y86614D01*
X534924D01*
X535940Y85598D01*
X645160D02*
X646176Y86614D01*
X647192D01*
X646176Y87630D01*
X647192Y88646D01*
X646176D01*
X645160Y89662D01*
X644144Y88646D01*
X643128D01*
X644144Y87630D01*
X643128Y86614D01*
X644144D01*
X645160Y85598D01*
X426720D02*
X427736Y86614D01*
X428752D01*
X427736Y87630D01*
X428752Y88646D01*
X427736D01*
X426720Y89662D01*
X425704Y88646D01*
X424688D01*
X425704Y87630D01*
X424688Y86614D01*
X425704D01*
X426720Y85598D01*
X317500D02*
X318516Y86614D01*
X319532D01*
X318516Y87630D01*
X319532Y88646D01*
X318516D01*
X317500Y89662D01*
X316484Y88646D01*
X315468D01*
X316484Y87630D01*
X315468Y86614D01*
X316484D01*
X317500Y85598D01*
X631190Y203708D02*
X632206Y204724D01*
X633222D01*
X632206Y205740D01*
X633222Y206756D01*
X632206D01*
X631190Y207772D01*
X630174Y206756D01*
X629158D01*
X630174Y205740D01*
X629158Y204724D01*
X630174D01*
X631190Y203708D01*
X521970D02*
X522986Y204724D01*
X524002D01*
X522986Y205740D01*
X524002Y206756D01*
X522986D01*
X521970Y207772D01*
X520954Y206756D01*
X519938D01*
X520954Y205740D01*
X519938Y204724D01*
X520954D01*
X521970Y203708D01*
X412750D02*
X413766Y204724D01*
X414782D01*
X413766Y205740D01*
X414782Y206756D01*
X413766D01*
X412750Y207772D01*
X411734Y206756D01*
X410718D01*
X411734Y205740D01*
X410718Y204724D01*
X411734D01*
X412750Y203708D01*
X298450Y168998D02*
X299466Y170014D01*
X300482D01*
X299466Y171030D01*
X300482Y172046D01*
X299466D01*
X298450Y173062D01*
X297434Y172046D01*
X296418D01*
X297434Y171030D01*
X296418Y170014D01*
X297434D01*
X298450Y168998D01*
Y179998D02*
X299466Y181014D01*
X300482D01*
X299466Y182030D01*
X300482Y183046D01*
X299466D01*
X298450Y184062D01*
X297434Y183046D01*
X296418D01*
X297434Y182030D01*
X296418Y181014D01*
X297434D01*
X298450Y179998D01*
X407670Y168998D02*
X408686Y170014D01*
X409702D01*
X408686Y171030D01*
X409702Y172046D01*
X408686D01*
X407670Y173062D01*
X406654Y172046D01*
X405638D01*
X406654Y171030D01*
X405638Y170014D01*
X406654D01*
X407670Y168998D01*
Y179998D02*
X408686Y181014D01*
X409702D01*
X408686Y182030D01*
X409702Y183046D01*
X408686D01*
X407670Y184062D01*
X406654Y183046D01*
X405638D01*
X406654Y182030D01*
X405638Y181014D01*
X406654D01*
X407670Y179998D01*
X516890Y168998D02*
X517906Y170014D01*
X518922D01*
X517906Y171030D01*
X518922Y172046D01*
X517906D01*
X516890Y173062D01*
X515874Y172046D01*
X514858D01*
X515874Y171030D01*
X514858Y170014D01*
X515874D01*
X516890Y168998D01*
Y179998D02*
X517906Y181014D01*
X518922D01*
X517906Y182030D01*
X518922Y183046D01*
X517906D01*
X516890Y184062D01*
X515874Y183046D01*
X514858D01*
X515874Y182030D01*
X514858Y181014D01*
X515874D01*
X516890Y179998D01*
X626110Y168998D02*
X627126Y170014D01*
X628142D01*
X627126Y171030D01*
X628142Y172046D01*
X627126D01*
X626110Y173062D01*
X625094Y172046D01*
X624078D01*
X625094Y171030D01*
X624078Y170014D01*
X625094D01*
X626110Y168998D01*
Y179998D02*
X627126Y181014D01*
X628142D01*
X627126Y182030D01*
X628142Y183046D01*
X627126D01*
X626110Y184062D01*
X625094Y183046D01*
X624078D01*
X625094Y182030D01*
X624078Y181014D01*
X625094D01*
X626110Y179998D01*
X527050Y268478D02*
X528066Y269494D01*
X529082D01*
X528066Y270510D01*
X529082Y271526D01*
X528066D01*
X527050Y272542D01*
X526034Y271526D01*
X525018D01*
X526034Y270510D01*
X525018Y269494D01*
X526034D01*
X527050Y268478D01*
X417830D02*
X418846Y269494D01*
X419862D01*
X418846Y270510D01*
X419862Y271526D01*
X418846D01*
X417830Y272542D01*
X416814Y271526D01*
X415798D01*
X416814Y270510D01*
X415798Y269494D01*
X416814D01*
X417830Y268478D01*
X703580D02*
X704596Y269494D01*
X705612D01*
X704596Y270510D01*
X705612Y271526D01*
X704596D01*
X703580Y272542D01*
X702564Y271526D01*
X701548D01*
X702564Y270510D01*
X701548Y269494D01*
X702564D01*
X703580Y268478D01*
X303530Y203708D02*
X304546Y204724D01*
X305562D01*
X304546Y205740D01*
X305562Y206756D01*
X304546D01*
X303530Y207772D01*
X302514Y206756D01*
X301498D01*
X302514Y205740D01*
X301498Y204724D01*
X302514D01*
X303530Y203708D01*
X427950Y177018D02*
X428966Y178034D01*
X429982D01*
X428966Y179050D01*
X429982Y180066D01*
X428966D01*
X427950Y181082D01*
X426934Y180066D01*
X425918D01*
X426934Y179050D01*
X425918Y178034D01*
X426934D01*
X427950Y177018D01*
X318770Y176878D02*
X319786Y177894D01*
X320802D01*
X319786Y178910D01*
X320802Y179926D01*
X319786D01*
X318770Y180942D01*
X317754Y179926D01*
X316738D01*
X317754Y178910D01*
X316738Y177894D01*
X317754D01*
X318770Y176878D01*
X704850Y169418D02*
X705866Y170434D01*
X706882D01*
X705866Y171450D01*
X706882Y172466D01*
X705866D01*
X704850Y173482D01*
X703834Y172466D01*
X702818D01*
X703834Y171450D01*
X702818Y170434D01*
X703834D01*
X704850Y169418D01*
X629920Y268478D02*
X630936Y269494D01*
X631952D01*
X630936Y270510D01*
X631952Y271526D01*
X630936D01*
X629920Y272542D01*
X628904Y271526D01*
X627888D01*
X628904Y270510D01*
X627888Y269494D01*
X628904D01*
X629920Y268478D01*
D58*
X704342Y43180D02*
G03*
X704342Y43180I-2032J0D01*
G01*
X336042D02*
G03*
X336042Y43180I-2032J0D01*
G01*
M02*
