G04*
G04 #@! TF.GenerationSoftware,Altium Limited,Altium Designer,22.10.1 (41)*
G04*
G04 Layer_Color=16776960*
%FSLAX44Y44*%
%MOMM*%
G71*
G04*
G04 #@! TF.SameCoordinates,7D2A880A-0552-440C-8A1C-2383AA23BDA6*
G04*
G04*
G04 #@! TF.FilePolarity,Positive*
G04*
G01*
G75*
%ADD55C,0.1000*%
D55*
X694770Y142240D02*
X704770D01*
X699770Y137240D02*
Y147240D01*
X363300Y134620D02*
X373300D01*
X368300Y129620D02*
Y139620D01*
X195770Y67390D02*
Y77390D01*
X190770Y72390D02*
X200770D01*
X195770Y280750D02*
Y290750D01*
X190770Y285750D02*
X200770D01*
X298450Y171530D02*
Y181530D01*
X293450Y176530D02*
X303450D01*
X407670Y171530D02*
Y181530D01*
X402670Y176530D02*
X412670D01*
X516890Y171530D02*
Y181530D01*
X511890Y176530D02*
X521890D01*
X626110Y171530D02*
Y181530D01*
X621110Y176530D02*
X631110D01*
X477520Y218520D02*
Y228520D01*
X472520Y223520D02*
X482520D01*
X477520Y129620D02*
Y139620D01*
X472520Y134620D02*
X482520D01*
X581740D02*
X591740D01*
X586740Y129620D02*
Y139620D01*
X581740Y223520D02*
X591740D01*
X586740Y218520D02*
Y228520D01*
X368300Y218520D02*
Y228520D01*
X363300Y223520D02*
X373300D01*
M02*
