G04*
G04 #@! TF.GenerationSoftware,Altium Limited,Altium Designer,22.10.1 (41)*
G04*
G04 Layer_Color=32896*
%FSLAX44Y44*%
%MOMM*%
G71*
G04*
G04 #@! TF.SameCoordinates,7D2A880A-0552-440C-8A1C-2383AA23BDA6*
G04*
G04*
G04 #@! TF.FilePolarity,Positive*
G04*
G01*
G75*
%ADD11C,0.2540*%
%ADD12C,0.2000*%
D11*
X229770Y336360D02*
Y344360D01*
X211770Y336360D02*
Y344360D01*
X207770Y340360D02*
X215770D01*
X177770Y299360D02*
X263770D01*
X177770Y381360D02*
X263770D01*
X211770Y13780D02*
Y21780D01*
X229770Y13780D02*
Y21780D01*
X225770Y17780D02*
X233770D01*
X177770Y58780D02*
X263770D01*
X177770Y-23220D02*
X263770D01*
X328509Y196424D02*
X330202Y198117D01*
X333587D01*
X335280Y196424D01*
Y189653D01*
X333587Y187960D01*
X330202D01*
X328509Y189653D01*
X318352Y198117D02*
Y187960D01*
X323430D01*
X325123Y189653D01*
Y193038D01*
X323430Y194731D01*
X318352D01*
X437729Y196424D02*
X439422Y198117D01*
X442807D01*
X444500Y196424D01*
Y189653D01*
X442807Y187960D01*
X439422D01*
X437729Y189653D01*
X427572Y198117D02*
Y187960D01*
X432650D01*
X434343Y189653D01*
Y193038D01*
X432650Y194731D01*
X427572D01*
X546949Y196424D02*
X548642Y198117D01*
X552027D01*
X553720Y196424D01*
Y189653D01*
X552027Y187960D01*
X548642D01*
X546949Y189653D01*
X536792Y198117D02*
Y187960D01*
X541870D01*
X543563Y189653D01*
Y193038D01*
X541870Y194731D01*
X536792D01*
X656169Y196424D02*
X657862Y198117D01*
X661247D01*
X662940Y196424D01*
Y189653D01*
X661247Y187960D01*
X657862D01*
X656169Y189653D01*
X646012Y198117D02*
Y187960D01*
X651090D01*
X652783Y189653D01*
Y193038D01*
X651090Y194731D01*
X646012D01*
X729829Y162134D02*
X731522Y163827D01*
X734907D01*
X736600Y162134D01*
Y155363D01*
X734907Y153670D01*
X731522D01*
X729829Y155363D01*
X719672Y163827D02*
Y153670D01*
X724751D01*
X726443Y155363D01*
Y158748D01*
X724751Y160441D01*
X719672D01*
X162557Y-11432D02*
X165096Y-8892D01*
X170174D01*
X172713Y-11432D01*
Y-21588D01*
X170174Y-24128D01*
X165096D01*
X162557Y-21588D01*
X157478Y-8892D02*
X147322D01*
X152400D01*
Y-24128D01*
X142243Y-16510D02*
X132087D01*
X162557Y379728D02*
X165096Y382267D01*
X170174D01*
X172713Y379728D01*
Y369572D01*
X170174Y367033D01*
X165096D01*
X162557Y369572D01*
X157478Y382267D02*
X147322D01*
X152400D01*
Y367033D01*
X142243Y374650D02*
X132087D01*
X137165Y379728D02*
Y369572D01*
D12*
X554990Y170260D02*
Y180260D01*
X542290Y170260D02*
Y180260D01*
X724840Y135780D02*
Y145780D01*
X737540Y135780D02*
Y145780D01*
X651510Y170260D02*
Y180260D01*
X664210Y170260D02*
Y180260D01*
X336550Y170100D02*
Y180100D01*
X323850Y170100D02*
Y180100D01*
X445770Y170260D02*
Y180260D01*
X433070Y170260D02*
Y180260D01*
M02*
