G04*
G04 #@! TF.GenerationSoftware,Altium Limited,Altium Designer,22.10.1 (41)*
G04*
G04 Layer_Color=128*
%FSLAX44Y44*%
%MOMM*%
G71*
G04*
G04 #@! TF.SameCoordinates,7D2A880A-0552-440C-8A1C-2383AA23BDA6*
G04*
G04*
G04 #@! TF.FilePolarity,Positive*
G04*
G01*
G75*
%ADD57C,0.0508*%
D57*
X889Y153670D02*
X19431D01*
X10160Y144399D02*
Y162941D01*
X889Y204470D02*
X19431D01*
X10160Y195199D02*
Y213741D01*
X220599Y251460D02*
X239141D01*
X229870Y242189D02*
Y260731D01*
X182499Y251460D02*
X201041D01*
X191770Y242189D02*
Y260731D01*
X144399Y251460D02*
X162941D01*
X153670Y242189D02*
Y260731D01*
X220599Y203200D02*
X239141D01*
X229870Y193929D02*
Y212471D01*
X182499Y203200D02*
X201041D01*
X191770Y193929D02*
Y212471D01*
X144399Y203200D02*
X162941D01*
X153670Y193929D02*
Y212471D01*
X220599Y154940D02*
X239141D01*
X229870Y145669D02*
Y164211D01*
X182499Y154940D02*
X201041D01*
X191770Y145669D02*
Y164211D01*
X144399Y154940D02*
X162941D01*
X153670Y145669D02*
Y164211D01*
X220599Y106680D02*
X239141D01*
X229870Y97409D02*
Y115951D01*
X182499Y106680D02*
X201041D01*
X191770Y97409D02*
Y115951D01*
X144399Y106680D02*
X162941D01*
X153670Y97409D02*
Y115951D01*
X501890Y358140D02*
X531890D01*
X516890Y343140D02*
Y373140D01*
X694810Y43180D02*
X709810D01*
X702310Y35680D02*
Y50680D01*
X668910Y17780D02*
X684910D01*
X676910Y9780D02*
Y25780D01*
X668910Y68580D02*
X684910D01*
X676910Y60580D02*
Y76580D01*
X719710Y68580D02*
X735710D01*
X727710Y60580D02*
Y76580D01*
X719710Y17780D02*
X735710D01*
X727710Y9780D02*
Y25780D01*
X-15000Y358140D02*
X15000D01*
X0Y343140D02*
Y373140D01*
X-15000Y0D02*
X15000D01*
X0Y-15000D02*
Y15000D01*
X135870Y17780D02*
X146070D01*
X140970Y12680D02*
Y22880D01*
X110470Y17780D02*
X120670D01*
X115570Y12680D02*
Y22880D01*
X85070Y17780D02*
X95270D01*
X90170Y12680D02*
Y22880D01*
X59670Y17780D02*
X69870D01*
X64770Y12680D02*
Y22880D01*
X326510Y43180D02*
X341510D01*
X334010Y35680D02*
Y50680D01*
X300610Y17780D02*
X316610D01*
X308610Y9780D02*
Y25780D01*
X300610Y68580D02*
X316610D01*
X308610Y60580D02*
Y76580D01*
X351410Y68580D02*
X367410D01*
X359410Y60580D02*
Y76580D01*
X351410Y17780D02*
X367410D01*
X359410Y9780D02*
Y25780D01*
X501890Y0D02*
X531890D01*
X516890Y-15000D02*
Y15000D01*
X135870Y341630D02*
X146070D01*
X140970Y336530D02*
Y346730D01*
X110470Y341630D02*
X120670D01*
X115570Y336530D02*
Y346730D01*
X85070Y341630D02*
X95270D01*
X90170Y336530D02*
Y346730D01*
X59670Y341630D02*
X69870D01*
X64770Y336530D02*
Y346730D01*
X698500Y147740D02*
X701040D01*
X699770Y146470D02*
Y149010D01*
X698500Y136740D02*
X701040D01*
X699770Y135470D02*
Y138010D01*
X645120Y179050D02*
X647660D01*
X646390Y177780D02*
Y180320D01*
X535900Y179050D02*
X538440D01*
X537170Y177780D02*
Y180320D01*
X271780Y270510D02*
X274320D01*
X273050Y269240D02*
Y271780D01*
X307340Y270510D02*
X309880D01*
X308610Y269240D02*
Y271780D01*
X412750Y72390D02*
X415290D01*
X414020Y71120D02*
Y73660D01*
X313690Y285750D02*
X316230D01*
X314960Y284480D02*
Y287020D01*
X422910Y285750D02*
X425450D01*
X424180Y284480D02*
Y287020D01*
X532130Y285750D02*
X534670D01*
X533400Y284480D02*
Y287020D01*
X642620Y285750D02*
X645160D01*
X643890Y284480D02*
Y287020D01*
X631190Y72390D02*
X633730D01*
X632460Y71120D02*
Y73660D01*
X521970Y72390D02*
X524510D01*
X523240Y71120D02*
Y73660D01*
X664210Y100330D02*
X666750D01*
X665480Y99060D02*
Y101600D01*
X692150Y87630D02*
X694690D01*
X693420Y86360D02*
Y88900D01*
X718800Y144760D02*
X721340D01*
X720070Y143490D02*
Y146030D01*
X534670Y87630D02*
X537210D01*
X535940Y86360D02*
Y88900D01*
X643890Y87630D02*
X646430D01*
X645160Y86360D02*
Y88900D01*
X425450Y87630D02*
X427990D01*
X426720Y86360D02*
Y88900D01*
X316230Y87630D02*
X318770D01*
X317500Y86360D02*
Y88900D01*
X629920Y205740D02*
X632460D01*
X631190Y204470D02*
Y207010D01*
X520700Y205740D02*
X523240D01*
X521970Y204470D02*
Y207010D01*
X411480Y205740D02*
X414020D01*
X412750Y204470D02*
Y207010D01*
X297180Y171030D02*
X299720D01*
X298450Y169760D02*
Y172300D01*
X297180Y182030D02*
X299720D01*
X298450Y180760D02*
Y183300D01*
X406400Y171030D02*
X408940D01*
X407670Y169760D02*
Y172300D01*
X406400Y182030D02*
X408940D01*
X407670Y180760D02*
Y183300D01*
X515620Y171030D02*
X518160D01*
X516890Y169760D02*
Y172300D01*
X515620Y182030D02*
X518160D01*
X516890Y180760D02*
Y183300D01*
X624840Y171030D02*
X627380D01*
X626110Y169760D02*
Y172300D01*
X624840Y182030D02*
X627380D01*
X626110Y180760D02*
Y183300D01*
X525780Y270510D02*
X528320D01*
X527050Y269240D02*
Y271780D01*
X416560Y270510D02*
X419100D01*
X417830Y269240D02*
Y271780D01*
X702310Y270510D02*
X704850D01*
X703580Y269240D02*
Y271780D01*
X302260Y205740D02*
X304800D01*
X303530Y204470D02*
Y207010D01*
X426680Y179050D02*
X429220D01*
X427950Y177780D02*
Y180320D01*
X317500Y178910D02*
X320040D01*
X318770Y177640D02*
Y180180D01*
X703580Y171450D02*
X706120D01*
X704850Y170180D02*
Y172720D01*
X628650Y270510D02*
X631190D01*
X629920Y269240D02*
Y271780D01*
M02*
