G04*
G04 #@! TF.GenerationSoftware,Altium Limited,Altium Designer,22.10.1 (41)*
G04*
G04 Layer_Color=8421504*
%FSLAX44Y44*%
%MOMM*%
G71*
G04*
G04 #@! TF.SameCoordinates,7D2A880A-0552-440C-8A1C-2383AA23BDA6*
G04*
G04*
G04 #@! TF.FilePolarity,Positive*
G04*
G01*
G75*
%ADD15R,0.6500X0.7000*%
%ADD16R,0.7000X0.6500*%
G04:AMPARAMS|DCode=17|XSize=0.5mm|YSize=0.25mm|CornerRadius=0.05mm|HoleSize=0mm|Usage=FLASHONLY|Rotation=0.000|XOffset=0mm|YOffset=0mm|HoleType=Round|Shape=RoundedRectangle|*
%AMROUNDEDRECTD17*
21,1,0.5000,0.1500,0,0,0.0*
21,1,0.4000,0.2500,0,0,0.0*
1,1,0.1000,0.2000,-0.0750*
1,1,0.1000,-0.2000,-0.0750*
1,1,0.1000,-0.2000,0.0750*
1,1,0.1000,0.2000,0.0750*
%
%ADD17ROUNDEDRECTD17*%
G04:AMPARAMS|DCode=18|XSize=0.9mm|YSize=1.6mm|CornerRadius=0.0495mm|HoleSize=0mm|Usage=FLASHONLY|Rotation=0.000|XOffset=0mm|YOffset=0mm|HoleType=Round|Shape=RoundedRectangle|*
%AMROUNDEDRECTD18*
21,1,0.9000,1.5010,0,0,0.0*
21,1,0.8010,1.6000,0,0,0.0*
1,1,0.0990,0.4005,-0.7505*
1,1,0.0990,-0.4005,-0.7505*
1,1,0.0990,-0.4005,0.7505*
1,1,0.0990,0.4005,0.7505*
%
%ADD18ROUNDEDRECTD18*%
%ADD19R,0.9300X0.7900*%
%ADD20R,0.9700X0.9000*%
%ADD21R,0.9000X1.4000*%
%ADD22R,0.9500X0.8000*%
%ADD23R,0.5200X0.5200*%
G04:AMPARAMS|DCode=24|XSize=0.51mm|YSize=0.6mm|CornerRadius=0mm|HoleSize=0mm|Usage=FLASHONLY|Rotation=315.000|XOffset=0mm|YOffset=0mm|HoleType=Round|Shape=Rectangle|*
%AMROTATEDRECTD24*
4,1,4,-0.3925,-0.0318,0.0318,0.3925,0.3925,0.0318,-0.0318,-0.3925,-0.3925,-0.0318,0.0*
%
%ADD24ROTATEDRECTD24*%

G04:AMPARAMS|DCode=25|XSize=0.6mm|YSize=0.54mm|CornerRadius=0.1431mm|HoleSize=0mm|Usage=FLASHONLY|Rotation=270.000|XOffset=0mm|YOffset=0mm|HoleType=Round|Shape=RoundedRectangle|*
%AMROUNDEDRECTD25*
21,1,0.6000,0.2538,0,0,270.0*
21,1,0.3138,0.5400,0,0,270.0*
1,1,0.2862,-0.1269,-0.1569*
1,1,0.2862,-0.1269,0.1569*
1,1,0.2862,0.1269,0.1569*
1,1,0.2862,0.1269,-0.1569*
%
%ADD25ROUNDEDRECTD25*%
G36*
X630393Y184454D02*
X630534Y184313D01*
X630610Y184130D01*
Y184030D01*
Y178030D01*
Y177931D01*
X630534Y177747D01*
X630393Y177606D01*
X630209Y177530D01*
X622010D01*
X621827Y177606D01*
X621686Y177747D01*
X621610Y177931D01*
Y178030D01*
Y184030D01*
Y184130D01*
X621686Y184313D01*
X621827Y184454D01*
X622010Y184530D01*
X630209D01*
X630393Y184454D01*
D02*
G37*
G36*
X521173D02*
X521314Y184313D01*
X521390Y184130D01*
Y184030D01*
Y178030D01*
Y177931D01*
X521314Y177747D01*
X521173Y177606D01*
X520989Y177530D01*
X512790D01*
X512607Y177606D01*
X512466Y177747D01*
X512390Y177931D01*
Y178030D01*
Y184030D01*
Y184130D01*
X512466Y184313D01*
X512607Y184454D01*
X512790Y184530D01*
X520989D01*
X521173Y184454D01*
D02*
G37*
G36*
X411953D02*
X412094Y184313D01*
X412170Y184130D01*
Y184030D01*
Y178030D01*
Y177931D01*
X412094Y177747D01*
X411953Y177606D01*
X411769Y177530D01*
X403571D01*
X403387Y177606D01*
X403246Y177747D01*
X403170Y177931D01*
Y178030D01*
Y184030D01*
Y184130D01*
X403246Y184313D01*
X403387Y184454D01*
X403571Y184530D01*
X411769D01*
X411953Y184454D01*
D02*
G37*
G36*
X302733D02*
X302874Y184313D01*
X302950Y184130D01*
Y184030D01*
Y178030D01*
Y177931D01*
X302874Y177747D01*
X302733Y177606D01*
X302549Y177530D01*
X294350D01*
X294167Y177606D01*
X294026Y177747D01*
X293950Y177931D01*
Y178030D01*
Y184030D01*
Y184130D01*
X294026Y184313D01*
X294167Y184454D01*
X294350Y184530D01*
X302549D01*
X302733Y184454D01*
D02*
G37*
G36*
X630393Y175454D02*
X630534Y175313D01*
X630610Y175129D01*
Y175030D01*
Y169030D01*
Y168930D01*
X630534Y168747D01*
X630393Y168606D01*
X630209Y168530D01*
X622010D01*
X621827Y168606D01*
X621686Y168747D01*
X621610Y168930D01*
Y169030D01*
Y175030D01*
Y175129D01*
X621686Y175313D01*
X621827Y175454D01*
X622010Y175530D01*
X630209D01*
X630393Y175454D01*
D02*
G37*
G36*
X521173D02*
X521314Y175313D01*
X521390Y175129D01*
Y175030D01*
Y169030D01*
Y168930D01*
X521314Y168747D01*
X521173Y168606D01*
X520989Y168530D01*
X512790D01*
X512607Y168606D01*
X512466Y168747D01*
X512390Y168930D01*
Y169030D01*
Y175030D01*
Y175129D01*
X512466Y175313D01*
X512607Y175454D01*
X512790Y175530D01*
X520989D01*
X521173Y175454D01*
D02*
G37*
G36*
X411953D02*
X412094Y175313D01*
X412170Y175129D01*
Y175030D01*
Y169030D01*
Y168930D01*
X412094Y168747D01*
X411953Y168606D01*
X411769Y168530D01*
X403571D01*
X403387Y168606D01*
X403246Y168747D01*
X403170Y168930D01*
Y169030D01*
Y175030D01*
Y175129D01*
X403246Y175313D01*
X403387Y175454D01*
X403571Y175530D01*
X411769D01*
X411953Y175454D01*
D02*
G37*
G36*
X302733D02*
X302874Y175313D01*
X302950Y175129D01*
Y175030D01*
Y169030D01*
Y168930D01*
X302874Y168747D01*
X302733Y168606D01*
X302549Y168530D01*
X294350D01*
X294167Y168606D01*
X294026Y168747D01*
X293950Y168930D01*
Y169030D01*
Y175030D01*
Y175129D01*
X294026Y175313D01*
X294167Y175454D01*
X294350Y175530D01*
X302549D01*
X302733Y175454D01*
D02*
G37*
G36*
X704053Y150164D02*
X704194Y150023D01*
X704270Y149839D01*
Y149740D01*
Y143740D01*
Y143640D01*
X704194Y143457D01*
X704053Y143316D01*
X703869Y143240D01*
X695670D01*
X695487Y143316D01*
X695346Y143457D01*
X695270Y143640D01*
Y143740D01*
Y149740D01*
Y149839D01*
X695346Y150023D01*
X695487Y150164D01*
X695670Y150240D01*
X703869D01*
X704053Y150164D01*
D02*
G37*
G36*
Y141164D02*
X704194Y141023D01*
X704270Y140839D01*
Y140740D01*
Y134740D01*
Y134641D01*
X704194Y134457D01*
X704053Y134316D01*
X703869Y134240D01*
X695670D01*
X695487Y134316D01*
X695346Y134457D01*
X695270Y134641D01*
Y134740D01*
Y140740D01*
Y140839D01*
X695346Y141023D01*
X695487Y141164D01*
X695670Y141240D01*
X703869D01*
X704053Y141164D01*
D02*
G37*
D15*
X656260Y144780D02*
D03*
Y154280D02*
D03*
X672770D02*
D03*
Y144780D02*
D03*
Y130810D02*
D03*
Y121310D02*
D03*
D16*
X655930Y130810D02*
D03*
X646430D02*
D03*
D17*
X690270Y149740D02*
D03*
Y144740D02*
D03*
Y139740D02*
D03*
Y134740D02*
D03*
X709270D02*
D03*
Y139740D02*
D03*
Y144740D02*
D03*
Y149740D02*
D03*
X307950Y184030D02*
D03*
Y179030D02*
D03*
Y174030D02*
D03*
Y169030D02*
D03*
X288950D02*
D03*
Y174030D02*
D03*
Y179030D02*
D03*
Y184030D02*
D03*
X417170D02*
D03*
Y179030D02*
D03*
Y174030D02*
D03*
Y169030D02*
D03*
X398170D02*
D03*
Y174030D02*
D03*
Y179030D02*
D03*
Y184030D02*
D03*
X526390D02*
D03*
Y179030D02*
D03*
Y174030D02*
D03*
Y169030D02*
D03*
X507390D02*
D03*
Y174030D02*
D03*
Y179030D02*
D03*
Y184030D02*
D03*
X635610D02*
D03*
Y179030D02*
D03*
Y174030D02*
D03*
Y169030D02*
D03*
X616610D02*
D03*
Y174030D02*
D03*
Y179030D02*
D03*
Y184030D02*
D03*
D18*
X699770Y142240D02*
D03*
X298450Y176530D02*
D03*
X407670D02*
D03*
X516890D02*
D03*
X626110D02*
D03*
D19*
X379730Y187270D02*
D03*
Y170870D02*
D03*
X598170Y187270D02*
D03*
Y170870D02*
D03*
X488950D02*
D03*
Y187270D02*
D03*
D20*
X327660Y223520D02*
D03*
Y238720D02*
D03*
X546100Y223520D02*
D03*
Y238720D02*
D03*
X436880D02*
D03*
Y223520D02*
D03*
D21*
X387800Y134620D02*
D03*
X348800D02*
D03*
X458020Y223520D02*
D03*
X497020D02*
D03*
X458020Y134620D02*
D03*
X497020D02*
D03*
X606240D02*
D03*
X567240D02*
D03*
X606240Y223520D02*
D03*
X567240D02*
D03*
X348800D02*
D03*
X387800D02*
D03*
D22*
X284480Y303530D02*
D03*
Y290530D02*
D03*
Y340360D02*
D03*
Y327360D02*
D03*
D23*
X191770Y72390D02*
D03*
X199770D02*
D03*
Y285750D02*
D03*
X191770D02*
D03*
D24*
X537210Y152400D02*
D03*
X543786Y145824D02*
D03*
X427990Y152400D02*
D03*
X434566Y145824D02*
D03*
X318770Y152400D02*
D03*
X325346Y145824D02*
D03*
D25*
X567200Y190500D02*
D03*
X575800D02*
D03*
X567200Y167640D02*
D03*
X575800D02*
D03*
X357360Y190500D02*
D03*
X348760D02*
D03*
X466580D02*
D03*
X457980D02*
D03*
X466580Y167640D02*
D03*
X457980D02*
D03*
X357360D02*
D03*
X348760D02*
D03*
M02*
